<svg width="167" height="22" viewBox="0 0 167 22" fill="none" xmlns="http://www.w3.org/2000/svg">
  <path d="M29.1765 18.3333V0L26.5506 2.64C24.8 1.57667 22.6118 1.57667 20.8612 2.64L18.2353 0V7.33333C12.1812 7.33333 7.29412 12.2467 7.29412 18.3333C5.28824 18.3333 3.64706 16.6833 3.64706 14.6667C3.64706 12.65 5.28824 11 7.29412 11C8.31529 11 9.11765 10.1933 9.11765 9.16667C9.11765 8.14 8.31529 7.33333 7.29412 7.33333C3.28235 7.33333 0 10.6333 0 14.6667C0 18.7 3.28235 22 7.29412 22H29.1765C30.1976 22 31 21.1933 31 20.1667C31 19.14 30.1976 18.3333 29.1765 18.3333Z" fill="white"/>
  <g clip-path="url(#clip0_15_11)">
    <path d="M48.1117 15.8127L52.6974 18.204C51.4406 20.4114 48.3155 22.0167 44.2903 22.0167C38.8724 22.0167 35 19.3411 35 14.5084C35 9.67558 38.8724 7 44.4941 7C48.3155 7 51.4066 8.6388 52.6294 10.7625L48.0437 13.1538C47.2115 11.9164 45.9717 11.2809 44.4261 11.2809C42.2692 11.2809 40.8085 12.4849 40.8085 14.4916C40.8085 16.4983 42.2692 17.7023 44.4261 17.7023C45.9717 17.7023 47.2625 17.1171 48.1287 15.796L48.1117 15.8127Z" fill="white"/>
    <path d="M65.2996 19.3077H58.8286L57.8266 21.515H51.9161L58.9985 7.48492H65.1977L72.28 21.5317H66.2846L65.2826 19.3244L65.2996 19.3077ZM63.754 15.8963L62.0556 12.1672L60.3572 15.8963H63.737H63.754Z" fill="white"/>
    <path d="M86.5805 11.5986H81.1966V21.5317H75.49V11.5986H70.106V7.48492H86.5636V11.5986H86.5805Z" fill="white"/>
    <path d="M108.915 7.48492V21.5317H103.293V13.9231L98.6053 19.6756H98.3165L93.6289 13.9231V21.5317H88.1261V7.48492H94.3592L98.5883 13.0368L102.868 7.48492H108.898H108.915Z" fill="white"/>
    <path d="M123.266 19.3077H116.795L115.793 21.515H109.883L116.965 7.48492H123.164L130.247 21.5317H124.251L123.249 19.3244L123.266 19.3077ZM121.721 15.8963L120.022 12.1672L118.324 15.8963H121.704H121.721Z" fill="white"/>
    <path d="M147.231 16.8662C147.231 19.9933 144.445 22 139.078 22C135.308 22 131.962 21.0635 129.601 19.3913L132.336 16.2977C133.932 17.3679 136.412 18.204 139.163 18.204C140.828 18.204 141.626 17.9699 141.626 17.4682C141.626 16.9666 141.082 16.7659 138.688 16.5652C134.187 16.1806 130.247 15.1605 130.247 11.8662C130.247 8.57191 133.728 7 138.45 7C141.405 7 144.462 7.6689 146.619 8.98997L144.038 12.1003C142.39 11.1137 140.539 10.7291 138.484 10.7291C137.244 10.7291 135.851 10.8462 135.851 11.398C135.851 11.8662 136.836 12 138.891 12.1672C143.766 12.5686 147.231 13.4548 147.231 16.8829V16.8662Z" fill="white"/>
    <path d="M167 7.48492V21.5317H161.293V16.5652H154.771V21.5317H149.065V7.48492H154.771V12.2508H161.293V7.48492H167Z" fill="white"/>
  </g>
  <defs>
    <clipPath id="clip0_15_11">
      <rect width="132" height="15" fill="white" transform="translate(35 7)"/>
    </clipPath>
  </defs>
</svg>
