<?xml version="1.0" encoding="utf-8"?>
<!-- Generator: Adobe Illustrator 28.3.0, SVG Export Plug-In . SVG Version: 6.00 Build 0)  -->
<svg version="1.1" id="Calque_1" xmlns="http://www.w3.org/2000/svg" xmlns:xlink="http://www.w3.org/1999/xlink" x="0px" y="0px"
	 viewBox="0 0 16 16" style="enable-background:new 0 0 16 16;" xml:space="preserve">
<style type="text/css">
	.st0{fill:#FFFFFF;}
</style>
<path id="Cat" class="st0" d="M14.11,11.18v-8l-1.15,1.15c-0.76-0.46-1.72-0.46-2.48,0L9.34,3.19v3.2c-2.64,0-4.77,2.14-4.77,4.8
	c-0.87,0-1.59-0.72-1.59-1.6c0-0.88,0.72-1.6,1.59-1.6c0.45,0,0.8-0.35,0.8-0.8c0-0.45-0.35-0.8-0.8-0.8c-1.75,0-3.18,1.44-3.18,3.2
	c0,1.76,1.43,3.2,3.18,3.2h9.54c0.45,0,0.8-0.35,0.8-0.8C14.9,11.54,14.55,11.18,14.11,11.18z"/>
</svg>
