<svg width="26" height="22" viewBox="0 0 26 22" fill="none" xmlns="http://www.w3.org/2000/svg">
  <path fill-rule="evenodd" clip-rule="evenodd" d="M7.49674 21.9878C7.39663 21.9812 7.29652 21.9761 7.19716 21.9672C6.63745 21.9165 6.12476 21.7394 5.66971 21.4203C4.88399 20.869 4.38191 20.1354 4.18169 19.2129C4.10661 18.8659 4.08613 18.516 4.10888 18.1632C4.13467 17.7486 4.21961 17.3465 4.35613 16.954C4.57303 16.3262 4.90067 15.7572 5.31477 15.2324C5.62724 14.8369 5.9799 14.4789 6.36973 14.154C6.73377 13.8497 7.0652 13.5138 7.37463 13.158C7.76446 12.7096 8.11713 12.234 8.466 11.7554C8.77392 11.332 9.07652 10.9064 9.4034 10.497C9.64913 10.1882 9.90851 9.89127 10.1975 9.61929C10.5592 9.27968 10.9582 8.993 11.4284 8.80629C11.781 8.66662 12.1481 8.59238 12.5288 8.58429C12.9604 8.57473 13.3859 8.6159 13.8053 8.71514C14.4469 8.86803 15.0028 9.17015 15.4821 9.61047C15.8098 9.91332 16.0866 10.2551 16.3445 10.6131C16.6175 10.9932 16.8685 11.3864 17.1279 11.776C17.4199 12.2141 17.721 12.6456 18.0585 13.0536C18.3937 13.4601 18.7638 13.835 19.168 14.1783C19.6572 14.5936 20.091 15.0552 20.4604 15.5742C20.7759 16.0189 21.0322 16.4923 21.212 17.0032C21.3515 17.4016 21.4395 17.8089 21.4615 18.2293C21.4956 18.8681 21.3819 19.4797 21.0831 20.0545C20.8062 20.5875 20.405 21.0153 19.9014 21.3549C19.5313 21.6048 19.1316 21.7945 18.6925 21.8996C18.537 21.9371 18.3785 21.9643 18.2193 21.9797C18.1973 21.9819 18.1753 21.9856 18.154 21.9893C18.1328 22.001 18.1101 21.9922 18.0881 21.9952C18.0699 21.9974 18.0509 21.9893 18.0335 22.001H17.6239C17.608 21.9893 17.589 21.9974 17.5716 21.9952H17.4851C17.1355 21.9841 16.7965 21.9136 16.4582 21.8379C15.8849 21.7085 15.3236 21.5379 14.7533 21.3975C14.2914 21.2843 13.8257 21.1917 13.3525 21.1395C13.0241 21.1028 12.6949 21.0991 12.3665 21.1101C12.1041 21.1189 11.8432 21.1579 11.5854 21.2042C11.0757 21.2976 10.5759 21.4299 10.0761 21.5622C9.5475 21.7026 9.01813 21.843 8.47737 21.929C8.25743 21.9636 8.03673 21.993 7.813 21.9908C7.76674 21.9908 7.72123 21.9966 7.67497 21.9959C7.61581 21.993 7.55741 22.0025 7.49901 21.99L7.49674 21.9878Z" fill="url(#paint0_linear_6_22)"/>
  <path fill-rule="evenodd" clip-rule="evenodd" d="M17.5989 0.0102912C18.336 0.096296 18.8988 0.459428 19.3288 1.03132C19.6238 1.42386 19.8089 1.86417 19.9242 2.33463C20.022 2.73966 20.0592 3.15131 20.0455 3.5681C20.0197 4.33332 19.8347 5.05958 19.4919 5.74909C19.2545 6.2269 18.9481 6.65766 18.5575 7.02888C18.2094 7.35893 17.8158 7.62282 17.3569 7.78748C17.0346 7.90289 16.7024 7.96023 16.3588 7.94038C15.7635 7.9073 15.2584 7.67795 14.8337 7.27733C14.4719 6.93552 14.2254 6.5224 14.054 6.06518C13.9349 5.74542 13.8599 5.41537 13.8212 5.0787C13.7939 4.84788 13.7833 4.61633 13.7908 4.38478C13.8083 3.83861 13.9099 3.30714 14.0927 2.79038C14.2868 2.24054 14.5629 1.73406 14.9391 1.28125C15.2553 0.899743 15.6255 0.577776 16.0691 0.339609C16.3952 0.164659 16.7426 0.0514559 17.1142 0.0102912C17.1256 0.00441051 17.1377 0.00661576 17.1491 0.00588067H17.184C17.2007 0.00367542 17.2189 0.0117613 17.2341 0H17.4752C17.4912 0.0117613 17.5086 0.00367542 17.5253 0.00588067H17.5609C17.5723 0.00588067 17.5852 0.00294034 17.5966 0.00955609L17.5989 0.0102912Z" fill="url(#paint1_linear_6_22)"/>
  <path fill-rule="evenodd" clip-rule="evenodd" d="M0.647438 8.44466C0.658815 8.22634 0.699769 8.01243 0.758167 7.80219C0.872689 7.39275 1.06002 7.02006 1.35125 6.70104C1.67737 6.34452 2.08085 6.11444 2.5632 6.02109C2.95531 5.94611 3.3421 5.97845 3.72283 6.09165C4.16043 6.2225 4.54647 6.44523 4.89079 6.73485C5.42472 7.18325 5.80772 7.7353 6.07241 8.36674C6.2112 8.69753 6.30676 9.04008 6.35985 9.39292C6.38563 9.56419 6.39777 9.73694 6.40156 9.90968C6.40763 10.2383 6.3735 10.5624 6.28932 10.8807C6.17707 11.3056 5.98822 11.6915 5.68713 12.0223C5.34129 12.4016 4.91051 12.6383 4.39403 12.7192C4.01482 12.7787 3.64243 12.7383 3.27763 12.6243C2.7877 12.47 2.36677 12.2053 1.99667 11.8621C1.63566 11.5283 1.34898 11.1409 1.12524 10.7102C0.906059 10.2875 0.755134 9.84205 0.682326 9.37307C0.669432 9.29 0.659573 9.20694 0.647438 9.12461C0.638337 9.08712 0.642129 9.04816 0.63227 9.01067C0.627719 8.99524 0.629995 8.9798 0.629236 8.96363C0.626203 8.94378 0.635304 8.92246 0.623169 8.90262V8.59903C0.642888 8.57109 0.633028 8.54022 0.635304 8.51082C0.63682 8.48876 0.631512 8.46524 0.645163 8.44466H0.647438Z" fill="url(#paint2_linear_6_22)"/>
  <path fill-rule="evenodd" clip-rule="evenodd" d="M5.82213 3.57103C5.8244 2.96752 5.91314 2.42356 6.12094 1.90018C6.27794 1.5047 6.49333 1.14231 6.79366 0.830632C7.11675 0.493963 7.50127 0.252856 7.96466 0.139653C8.42805 0.0257146 8.88311 0.0580583 9.33133 0.215366C9.72571 0.354297 10.07 0.572617 10.3749 0.848274C10.8626 1.28785 11.2122 1.81932 11.461 2.414C11.6187 2.79257 11.7279 3.18364 11.7901 3.5872C11.825 3.81581 11.8455 4.04662 11.8508 4.27891C11.8561 4.57074 11.8371 4.86183 11.7871 5.15072C11.6839 5.75349 11.4731 6.31436 11.0969 6.81128C10.8626 7.11928 10.5789 7.37362 10.2301 7.55739C9.84023 7.76174 9.4231 7.84775 8.9817 7.81467C8.58277 7.78526 8.21494 7.65883 7.87137 7.46183C7.42391 7.20455 7.06138 6.85832 6.75953 6.45035C6.40156 5.96593 6.15583 5.43079 6.00036 4.85522C5.91541 4.5406 5.86081 4.2201 5.83578 3.89593C5.82592 3.77391 5.81758 3.65188 5.82137 3.5725L5.82213 3.57103Z" fill="url(#paint3_linear_6_22)"/>
  <path fill-rule="evenodd" clip-rule="evenodd" d="M25.3742 8.79824V8.86807C25.3469 9.44952 25.1861 9.99716 24.9267 10.5191C24.7227 10.9285 24.4626 11.3012 24.1402 11.6313C23.7269 12.0561 23.2468 12.3877 22.6765 12.5861C22.3344 12.7052 21.9825 12.764 21.6185 12.7442C21.0815 12.7148 20.6128 12.5258 20.2185 12.1708C19.8931 11.8775 19.6785 11.5166 19.5427 11.1101C19.4206 10.7462 19.3713 10.3706 19.3842 9.98834C19.4107 9.14814 19.6853 8.38438 20.1601 7.68532C20.3201 7.44862 20.5044 7.2303 20.7107 7.03036C21.1346 6.62092 21.62 6.30557 22.1949 6.12694C22.5218 6.02623 22.8555 5.97992 23.1975 6.00565C23.7201 6.04461 24.1759 6.23647 24.5581 6.58563C24.9032 6.90099 25.1201 7.29058 25.2521 7.72722C25.3249 7.96906 25.3674 8.21605 25.3757 8.46745V8.53802C25.3727 8.62402 25.3734 8.71003 25.3757 8.79603L25.3742 8.79824Z" fill="url(#paint4_linear_6_22)"/>
  <path d="M10.6801 14.984C10.6961 14.3493 10.8801 13.864 11.2321 13.528C11.5895 13.192 12.0935 13.024 12.7441 13.024C13.1655 13.024 13.5255 13.096 13.8241 13.24C14.1228 13.384 14.3468 13.5787 14.4961 13.824C14.6508 14.0693 14.7281 14.3467 14.7281 14.656C14.7281 15.0293 14.6401 15.3227 14.4641 15.536C14.2881 15.744 14.0908 15.8853 13.8721 15.96V15.992C14.5121 16.232 14.8321 16.6773 14.8321 17.328C14.8321 17.6693 14.7521 17.9707 14.5921 18.232C14.4321 18.4933 14.2028 18.696 13.9041 18.84C13.6108 18.984 13.2615 19.056 12.8561 19.056C12.1628 19.056 11.6188 18.8907 11.2241 18.56C10.8295 18.2293 10.6268 17.712 10.6161 17.008H12.3441C12.3335 17.2 12.3601 17.3467 12.4241 17.448C12.4935 17.544 12.6108 17.592 12.7761 17.592C12.8721 17.592 12.9521 17.5573 13.0161 17.488C13.0801 17.4133 13.1121 17.3173 13.1121 17.2C13.1121 17.0507 13.0615 16.9387 12.9601 16.864C12.8641 16.784 12.6988 16.744 12.4641 16.744H12.1681V15.312H12.4561C12.8188 15.3333 13.0001 15.1893 13.0001 14.88C13.0001 14.7467 12.9708 14.648 12.9121 14.584C12.8588 14.52 12.7895 14.488 12.7041 14.488C12.5068 14.488 12.4081 14.6533 12.4081 14.984H10.6801Z" fill="white"/>
  <defs>
    <linearGradient id="paint0_linear_6_22" x1="12.7837" y1="8.58295" x2="12.7837" y2="22.001" gradientUnits="userSpaceOnUse">
      <stop stop-color="#E9AA6F"/>
      <stop offset="1" stop-color="#9F7045"/>
    </linearGradient>
    <linearGradient id="paint1_linear_6_22" x1="16.9183" y1="4.84272e-09" x2="17.1246" y2="12.0314" gradientUnits="userSpaceOnUse">
      <stop stop-color="#B98454"/>
      <stop offset="1" stop-color="#533B26"/>
    </linearGradient>
    <linearGradient id="paint2_linear_6_22" x1="3.51271" y1="5.98059" x2="3.51271" y2="12.7465" gradientUnits="userSpaceOnUse">
      <stop stop-color="#D79C65"/>
      <stop offset="1" stop-color="#715235"/>
    </linearGradient>
    <linearGradient id="paint3_linear_6_22" x1="8.83605" y1="0.0717773" x2="8.875" y2="12.0313" gradientUnits="userSpaceOnUse">
      <stop stop-color="#B98454"/>
      <stop offset="1" stop-color="#533B26"/>
    </linearGradient>
    <linearGradient id="paint4_linear_6_22" x1="22.379" y1="5.99866" x2="19.187" y2="16.1562" gradientUnits="userSpaceOnUse">
      <stop stop-color="#B98454"/>
      <stop offset="1" stop-color="#533B26"/>
    </linearGradient>
  </defs>
</svg>
