<?xml version="1.0" encoding="utf-8"?>
<!-- Generator: Adobe Illustrator 28.2.0, SVG Export Plug-In . SVG Version: 6.00 Build 0)  -->
<svg version="1.1" id="Calque_1" xmlns="http://www.w3.org/2000/svg" xmlns:xlink="http://www.w3.org/1999/xlink" x="0px" y="0px"
	 viewBox="0 0 24.8 22" style="enable-background:new 0 0 24.8 22;" xml:space="preserve">
<style type="text/css">
	.st0{fill-rule:evenodd;clip-rule:evenodd;fill:url(#SVGID_1_);}
	.st1{fill-rule:evenodd;clip-rule:evenodd;fill:url(#SVGID_00000075135150329284350120000006069366422273731968_);}
	.st2{fill-rule:evenodd;clip-rule:evenodd;fill:url(#SVGID_00000010310470403752080710000015686277439970152096_);}
	.st3{fill-rule:evenodd;clip-rule:evenodd;fill:url(#SVGID_00000147925406464610081330000013903769017504448679_);}
	.st4{fill-rule:evenodd;clip-rule:evenodd;fill:url(#SVGID_00000075130524176230105800000010017870626949420733_);}
	.st5{fill:#FFFFFF;}
</style>
<linearGradient id="SVGID_1_" gradientUnits="userSpaceOnUse" x1="12.1606" y1="15.4171" x2="12.1606" y2="1.999" gradientTransform="matrix(1 0 0 -1 0 24)">
	<stop  offset="0" style="stop-color:#E9AA6F"/>
	<stop  offset="1" style="stop-color:#9F7045"/>
</linearGradient>
<path class="st0" d="M6.9,22c-0.1,0-0.2,0-0.3,0C6,21.9,5.5,21.7,5,21.4c-0.8-0.6-1.3-1.3-1.5-2.2c-0.1-0.3-0.1-0.7-0.1-1
	c0-0.4,0.1-0.8,0.2-1.2c0.2-0.6,0.5-1.2,1-1.7c0.3-0.4,0.7-0.8,1.1-1.1c0.4-0.3,0.7-0.6,1-1c0.4-0.4,0.7-0.9,1.1-1.4
	c0.3-0.4,0.6-0.8,0.9-1.3C9,10.2,9.3,9.9,9.6,9.6c0.4-0.3,0.8-0.6,1.2-0.8c0.4-0.1,0.7-0.2,1.1-0.2c0.4,0,0.9,0,1.3,0.1
	c0.6,0.2,1.2,0.5,1.7,0.9c0.3,0.3,0.6,0.6,0.9,1c0.3,0.4,0.5,0.8,0.8,1.2c0.3,0.4,0.6,0.9,0.9,1.3c0.3,0.4,0.7,0.8,1.1,1.1
	c0.5,0.4,0.9,0.9,1.3,1.4c0.3,0.4,0.6,0.9,0.8,1.4c0.1,0.4,0.2,0.8,0.2,1.2c0,0.6-0.1,1.3-0.4,1.8c-0.3,0.5-0.7,1-1.2,1.3
	c-0.4,0.2-0.8,0.4-1.2,0.5c-0.2,0-0.3,0.1-0.5,0.1c0,0,0,0-0.1,0c0,0,0,0-0.1,0c0,0,0,0-0.1,0H17c0,0,0,0-0.1,0h-0.1
	c-0.3,0-0.7-0.1-1-0.2c-0.6-0.1-1.1-0.3-1.7-0.4c-0.5-0.1-0.9-0.2-1.4-0.3c-0.3,0-0.7,0-1,0c-0.3,0-0.5,0-0.8,0.1
	c-0.5,0.1-1,0.2-1.5,0.4c-0.5,0.1-1.1,0.3-1.6,0.4C7.6,22,7.4,22,7.2,22c0,0-0.1,0-0.1,0C7,22,6.9,22,6.9,22L6.9,22z"/>
<linearGradient id="SVGID_00000051383661308973743050000003973627537423957427_" gradientUnits="userSpaceOnUse" x1="16.2273" y1="23.9934" x2="16.4336" y2="11.962" gradientTransform="matrix(1 0 0 -1 0 24)">
	<stop  offset="0" style="stop-color:#B98454"/>
	<stop  offset="1" style="stop-color:#533B26"/>
</linearGradient>
<path style="fill-rule:evenodd;clip-rule:evenodd;fill:url(#SVGID_00000051383661308973743050000003973627537423957427_);" d="M17,0
	c0.7,0.1,1.3,0.4,1.7,1c0.3,0.4,0.5,0.8,0.6,1.3c0.1,0.4,0.1,0.8,0.1,1.2c0,0.8-0.2,1.5-0.6,2.2c-0.2,0.5-0.5,0.9-0.9,1.3
	c-0.3,0.3-0.7,0.6-1.2,0.8c-0.3,0.1-0.7,0.2-1,0.2c-0.6,0-1.1-0.3-1.5-0.7c-0.4-0.3-0.6-0.8-0.8-1.2c-0.1-0.3-0.2-0.6-0.2-1
	c0-0.2,0-0.5,0-0.7c0-0.5,0.1-1.1,0.3-1.6c0.2-0.5,0.5-1.1,0.8-1.5c0.3-0.4,0.7-0.7,1.1-0.9c0.3-0.2,0.7-0.3,1-0.3c0,0,0,0,0,0h0
	c0,0,0,0,0.1,0h0.2C16.9,0,16.9,0,17,0L17,0C16.9,0,17,0,17,0L17,0z"/>
<linearGradient id="SVGID_00000183219090141007510250000008722780006897313431_" gradientUnits="userSpaceOnUse" x1="2.8895" y1="18.0194" x2="2.8895" y2="11.2535" gradientTransform="matrix(1 0 0 -1 0 24)">
	<stop  offset="0" style="stop-color:#D79C65"/>
	<stop  offset="1" style="stop-color:#715235"/>
</linearGradient>
<path style="fill-rule:evenodd;clip-rule:evenodd;fill:url(#SVGID_00000183219090141007510250000008722780006897313431_);" d="
	M0,8.4C0,8.2,0.1,8,0.1,7.8C0.2,7.4,0.4,7,0.7,6.7C1.1,6.3,1.5,6.1,1.9,6c0.4-0.1,0.8,0,1.2,0.1c0.4,0.1,0.8,0.4,1.2,0.6
	c0.5,0.4,0.9,1,1.2,1.6c0.1,0.3,0.2,0.7,0.3,1c0,0.2,0,0.3,0,0.5c0,0.3,0,0.7-0.1,1c-0.1,0.4-0.3,0.8-0.6,1.1
	c-0.3,0.4-0.8,0.6-1.3,0.7c-0.4,0.1-0.8,0-1.1-0.1c-0.5-0.2-0.9-0.4-1.3-0.8c-0.4-0.3-0.6-0.7-0.9-1.2c-0.2-0.4-0.4-0.9-0.4-1.3
	c0-0.1,0-0.2,0-0.2C0,9.1,0,9,0,9c0,0,0,0,0,0c0,0,0,0,0-0.1V8.6C0,8.6,0,8.5,0,8.4C0,8.5,0,8.5,0,8.4L0,8.4z"/>
<linearGradient id="SVGID_00000065069908826730851970000003332307532736811677_" gradientUnits="userSpaceOnUse" x1="8.2001" y1="23.9292" x2="8.2391" y2="11.9697" gradientTransform="matrix(1 0 0 -1 0 24)">
	<stop  offset="0" style="stop-color:#B98454"/>
	<stop  offset="1" style="stop-color:#533B26"/>
</linearGradient>
<path style="fill-rule:evenodd;clip-rule:evenodd;fill:url(#SVGID_00000065069908826730851970000003332307532736811677_);" d="
	M5.2,3.6c0-0.6,0.1-1.1,0.3-1.7c0.2-0.4,0.4-0.8,0.7-1.1c0.3-0.3,0.7-0.6,1.2-0.7C7.8,0,8.3,0.1,8.7,0.2c0.4,0.1,0.7,0.4,1,0.6
	c0.5,0.4,0.8,1,1.1,1.6c0.2,0.4,0.3,0.8,0.3,1.2c0,0.2,0.1,0.5,0.1,0.7c0,0.3,0,0.6-0.1,0.9c-0.1,0.6-0.3,1.2-0.7,1.7
	C10.2,7.1,10,7.4,9.6,7.6C9.2,7.8,8.8,7.8,8.4,7.8C8,7.8,7.6,7.7,7.2,7.5c-0.4-0.3-0.8-0.6-1.1-1C5.8,6,5.5,5.4,5.4,4.9
	c-0.1-0.3-0.1-0.6-0.2-1C5.2,3.8,5.2,3.7,5.2,3.6L5.2,3.6z"/>
<linearGradient id="SVGID_00000020362957095377738880000007697426092777763237_" gradientUnits="userSpaceOnUse" x1="22.7242" y1="17.697" x2="19.5322" y2="7.5395" gradientTransform="matrix(1 0 0 -1 0 24)">
	<stop  offset="0" style="stop-color:#B98454"/>
	<stop  offset="1" style="stop-color:#533B26"/>
</linearGradient>
<path style="fill-rule:evenodd;clip-rule:evenodd;fill:url(#SVGID_00000020362957095377738880000007697426092777763237_);" d="
	M24.8,8.8L24.8,8.8c0,0.7-0.2,1.2-0.4,1.7c-0.2,0.4-0.5,0.8-0.8,1.1c-0.4,0.4-0.9,0.8-1.5,1c-0.3,0.1-0.7,0.2-1.1,0.2
	c-0.5,0-1-0.2-1.4-0.6c-0.3-0.3-0.5-0.7-0.7-1.1c-0.1-0.4-0.2-0.7-0.2-1.1c0-0.8,0.3-1.6,0.8-2.3c0.2-0.2,0.3-0.5,0.6-0.7
	c0.4-0.4,0.9-0.7,1.5-0.9C21.9,6,22.2,6,22.6,6c0.5,0,1,0.2,1.4,0.6c0.3,0.3,0.6,0.7,0.7,1.1c0.1,0.2,0.1,0.5,0.1,0.7v0.1
	C24.7,8.6,24.8,8.7,24.8,8.8L24.8,8.8z"/>
<path class="st5" d="M10.1,15c0-0.6,0.2-1.1,0.6-1.5c0.4-0.3,0.9-0.5,1.5-0.5c0.4,0,0.8,0.1,1.1,0.2c0.3,0.1,0.5,0.3,0.7,0.6
	c0.2,0.2,0.2,0.5,0.2,0.8c0,0.4-0.1,0.7-0.3,0.9c-0.2,0.2-0.4,0.3-0.6,0.4v0c0.6,0.2,1,0.7,1,1.3c0,0.3-0.1,0.6-0.2,0.9
	c-0.2,0.3-0.4,0.5-0.7,0.6c-0.3,0.1-0.6,0.2-1,0.2c-0.7,0-1.2-0.2-1.6-0.5C10.2,18.2,10,17.7,10,17h1.7c0,0.2,0,0.3,0.1,0.4
	c0.1,0.1,0.2,0.1,0.4,0.1c0.1,0,0.2,0,0.2-0.1c0.1-0.1,0.1-0.2,0.1-0.3c0-0.1-0.1-0.3-0.2-0.3c-0.1-0.1-0.3-0.1-0.5-0.1h-0.3v-1.4
	h0.3c0.4,0,0.5-0.1,0.5-0.4c0-0.1,0-0.2-0.1-0.3c-0.1-0.1-0.1-0.1-0.2-0.1c-0.2,0-0.3,0.2-0.3,0.5H10.1z"/>
</svg>
