<svg width="34" height="30" viewBox="0 0 34 30" fill="none" xmlns="http://www.w3.org/2000/svg">
  <g filter="url(#filter0_d_6_22)">
    <path fill-rule="evenodd" clip-rule="evenodd" d="M11.4967 21.9878C11.3966 21.9812 11.2965 21.9761 11.1972 21.9672C10.6375 21.9165 10.1248 21.7394 9.66971 21.4203C8.88399 20.869 8.38191 20.1354 8.18169 19.2129C8.10661 18.8659 8.08613 18.516 8.10888 18.1632C8.13467 17.7486 8.21961 17.3465 8.35613 16.954C8.57303 16.3262 8.90067 15.7572 9.31477 15.2324C9.62724 14.8369 9.9799 14.4789 10.3697 14.154C10.7338 13.8497 11.0652 13.5138 11.3746 13.158C11.7645 12.7096 12.1171 12.234 12.466 11.7554C12.7739 11.332 13.0765 10.9064 13.4034 10.497C13.6491 10.1882 13.9085 9.89127 14.1975 9.61929C14.5592 9.27968 14.9582 8.993 15.4284 8.80629C15.781 8.66662 16.1481 8.59238 16.5288 8.58429C16.9604 8.57473 17.3859 8.6159 17.8053 8.71514C18.4469 8.86803 19.0028 9.17015 19.4821 9.61047C19.8098 9.91332 20.0866 10.2551 20.3445 10.6131C20.6175 10.9932 20.8685 11.3864 21.1279 11.776C21.4199 12.2141 21.721 12.6456 22.0585 13.0536C22.3937 13.4601 22.7638 13.835 23.168 14.1783C23.6572 14.5936 24.091 15.0552 24.4604 15.5742C24.7759 16.0189 25.0322 16.4923 25.212 17.0032C25.3515 17.4016 25.4395 17.8089 25.4615 18.2293C25.4956 18.8681 25.3819 19.4797 25.0831 20.0545C24.8062 20.5875 24.405 21.0153 23.9014 21.3549C23.5313 21.6048 23.1316 21.7945 22.6925 21.8996C22.537 21.9371 22.3785 21.9643 22.2193 21.9797C22.1973 21.9819 22.1753 21.9856 22.154 21.9893C22.1328 22.001 22.1101 21.9922 22.0881 21.9952C22.0699 21.9974 22.0509 21.9893 22.0335 22.001H21.6239C21.608 21.9893 21.589 21.9974 21.5716 21.9952H21.4851C21.1355 21.9841 20.7965 21.9136 20.4582 21.8379C19.8849 21.7085 19.3236 21.5379 18.7533 21.3975C18.2914 21.2843 17.8257 21.1917 17.3525 21.1395C17.0241 21.1028 16.6949 21.0991 16.3665 21.1101C16.1041 21.1189 15.8432 21.1579 15.5854 21.2042C15.0757 21.2976 14.5759 21.4299 14.0761 21.5622C13.5475 21.7026 13.0181 21.843 12.4774 21.929C12.2574 21.9636 12.0367 21.993 11.813 21.9908C11.7667 21.9908 11.7212 21.9966 11.675 21.9959C11.6158 21.993 11.5574 22.0025 11.499 21.99L11.4967 21.9878Z" fill="url(#paint0_linear_6_22)"/>
    <path fill-rule="evenodd" clip-rule="evenodd" d="M21.5989 0.0102912C22.336 0.096296 22.8988 0.459428 23.3288 1.03132C23.6238 1.42386 23.8089 1.86417 23.9242 2.33463C24.022 2.73966 24.0592 3.15131 24.0455 3.5681C24.0197 4.33332 23.8347 5.05958 23.4919 5.74909C23.2545 6.2269 22.9481 6.65766 22.5575 7.02888C22.2094 7.35893 21.8158 7.62282 21.3569 7.78748C21.0346 7.90289 20.7024 7.96023 20.3588 7.94038C19.7635 7.9073 19.2584 7.67795 18.8337 7.27733C18.4719 6.93552 18.2254 6.5224 18.054 6.06518C17.9349 5.74542 17.8599 5.41537 17.8212 5.0787C17.7939 4.84788 17.7833 4.61633 17.7908 4.38478C17.8083 3.83861 17.9099 3.30714 18.0927 2.79038C18.2868 2.24054 18.5629 1.73406 18.9391 1.28125C19.2553 0.899743 19.6255 0.577776 20.0691 0.339609C20.3952 0.164659 20.7426 0.0514559 21.1142 0.0102912C21.1256 0.00441051 21.1377 0.00661576 21.1491 0.00588067H21.184C21.2007 0.00367542 21.2189 0.0117613 21.2341 0H21.4752C21.4912 0.0117613 21.5086 0.00367542 21.5253 0.00588067H21.5609C21.5723 0.00588067 21.5852 0.00294034 21.5966 0.00955609L21.5989 0.0102912Z" fill="url(#paint1_linear_6_22)"/>
    <path fill-rule="evenodd" clip-rule="evenodd" d="M4.64744 8.44466C4.65881 8.22634 4.69977 8.01243 4.75817 7.80219C4.87269 7.39275 5.06002 7.02006 5.35125 6.70104C5.67737 6.34452 6.08085 6.11444 6.5632 6.02109C6.95531 5.94611 7.3421 5.97845 7.72283 6.09165C8.16043 6.2225 8.54647 6.44523 8.89079 6.73485C9.42472 7.18325 9.80772 7.7353 10.0724 8.36674C10.2112 8.69753 10.3068 9.04008 10.3598 9.39292C10.3856 9.56419 10.3978 9.73694 10.4016 9.90968C10.4076 10.2383 10.3735 10.5624 10.2893 10.8807C10.1771 11.3056 9.98822 11.6915 9.68713 12.0223C9.34129 12.4016 8.91051 12.6383 8.39403 12.7192C8.01482 12.7787 7.64243 12.7383 7.27763 12.6243C6.7877 12.47 6.36677 12.2053 5.99667 11.8621C5.63566 11.5283 5.34898 11.1409 5.12524 10.7102C4.90606 10.2875 4.75513 9.84205 4.68233 9.37307C4.66943 9.29 4.65957 9.20694 4.64744 9.12461C4.63834 9.08712 4.64213 9.04816 4.63227 9.01067C4.62772 8.99524 4.62999 8.9798 4.62924 8.96363C4.6262 8.94378 4.6353 8.92246 4.62317 8.90262V8.59903C4.64289 8.57109 4.63303 8.54022 4.6353 8.51082C4.63682 8.48876 4.63151 8.46524 4.64516 8.44466H4.64744Z" fill="url(#paint2_linear_6_22)"/>
    <path fill-rule="evenodd" clip-rule="evenodd" d="M9.82213 3.57103C9.8244 2.96752 9.91314 2.42356 10.1209 1.90018C10.2779 1.5047 10.4933 1.14231 10.7937 0.830632C11.1167 0.493963 11.5013 0.252856 11.9647 0.139653C12.4281 0.0257146 12.8831 0.0580583 13.3313 0.215366C13.7257 0.354297 14.07 0.572617 14.3749 0.848274C14.8626 1.28785 15.2122 1.81932 15.461 2.414C15.6187 2.79257 15.7279 3.18364 15.7901 3.5872C15.825 3.81581 15.8455 4.04662 15.8508 4.27891C15.8561 4.57074 15.8371 4.86183 15.7871 5.15072C15.6839 5.75349 15.4731 6.31436 15.0969 6.81128C14.8626 7.11928 14.5789 7.37362 14.2301 7.55739C13.8402 7.76174 13.4231 7.84775 12.9817 7.81467C12.5828 7.78526 12.2149 7.65883 11.8714 7.46183C11.4239 7.20455 11.0614 6.85832 10.7595 6.45035C10.4016 5.96593 10.1558 5.43079 10.0004 4.85522C9.91541 4.5406 9.86081 4.2201 9.83578 3.89593C9.82592 3.77391 9.81758 3.65188 9.82137 3.5725L9.82213 3.57103Z" fill="url(#paint3_linear_6_22)"/>
    <path fill-rule="evenodd" clip-rule="evenodd" d="M29.3742 8.79824V8.86807C29.3469 9.44952 29.1861 9.99716 28.9267 10.5191C28.7227 10.9285 28.4626 11.3012 28.1402 11.6313C27.7269 12.0561 27.2468 12.3877 26.6765 12.5861C26.3344 12.7052 25.9825 12.764 25.6185 12.7442C25.0815 12.7148 24.6128 12.5258 24.2185 12.1708C23.8931 11.8775 23.6785 11.5166 23.5427 11.1101C23.4206 10.7462 23.3713 10.3706 23.3842 9.98834C23.4107 9.14814 23.6853 8.38438 24.1601 7.68532C24.3201 7.44862 24.5044 7.2303 24.7107 7.03036C25.1346 6.62092 25.62 6.30557 26.1949 6.12694C26.5218 6.02623 26.8555 5.97992 27.1975 6.00565C27.7201 6.04461 28.1759 6.23647 28.5581 6.58563C28.9032 6.90099 29.1201 7.29058 29.2521 7.72722C29.3249 7.96906 29.3674 8.21605 29.3757 8.46745V8.53802C29.3727 8.62402 29.3734 8.71003 29.3757 8.79603L29.3742 8.79824Z" fill="url(#paint4_linear_6_22)"/>
    <path d="M14.6801 14.984C14.6961 14.3493 14.8801 13.864 15.2321 13.528C15.5895 13.192 16.0935 13.024 16.7441 13.024C17.1655 13.024 17.5255 13.096 17.8241 13.24C18.1228 13.384 18.3468 13.5787 18.4961 13.824C18.6508 14.0693 18.7281 14.3467 18.7281 14.656C18.7281 15.0293 18.6401 15.3227 18.4641 15.536C18.2881 15.744 18.0908 15.8853 17.8721 15.96V15.992C18.5121 16.232 18.8321 16.6773 18.8321 17.328C18.8321 17.6693 18.7521 17.9707 18.5921 18.232C18.4321 18.4933 18.2028 18.696 17.9041 18.84C17.6108 18.984 17.2615 19.056 16.8561 19.056C16.1628 19.056 15.6188 18.8907 15.2241 18.56C14.8295 18.2293 14.6268 17.712 14.6161 17.008H16.3441C16.3335 17.2 16.3601 17.3467 16.4241 17.448C16.4935 17.544 16.6108 17.592 16.7761 17.592C16.8721 17.592 16.9521 17.5573 17.0161 17.488C17.0801 17.4133 17.1121 17.3173 17.1121 17.2C17.1121 17.0507 17.0615 16.9387 16.9601 16.864C16.8641 16.784 16.6988 16.744 16.4641 16.744H16.1681V15.312H16.4561C16.8188 15.3333 17.0001 15.1893 17.0001 14.88C17.0001 14.7467 16.9708 14.648 16.9121 14.584C16.8588 14.52 16.7895 14.488 16.7041 14.488C16.5068 14.488 16.4081 14.6533 16.4081 14.984H14.6801Z" fill="white"/>
  </g>
  <defs>
    <filter id="filter0_d_6_22" x="0.623169" y="0" width="32.7526" height="30.001" filterUnits="userSpaceOnUse" color-interpolation-filters="sRGB">
      <feFlood flood-opacity="0" result="BackgroundImageFix"/>
      <feColorMatrix in="SourceAlpha" type="matrix" values="0 0 0 0 0 0 0 0 0 0 0 0 0 0 0 0 0 0 127 0" result="hardAlpha"/>
      <feOffset dy="4"/>
      <feGaussianBlur stdDeviation="2"/>
      <feComposite in2="hardAlpha" operator="out"/>
      <feColorMatrix type="matrix" values="0 0 0 0 0 0 0 0 0 0 0 0 0 0 0 0 0 0 0.25 0"/>
      <feBlend mode="normal" in2="BackgroundImageFix" result="effect1_dropShadow_6_22"/>
      <feBlend mode="normal" in="SourceGraphic" in2="effect1_dropShadow_6_22" result="shape"/>
    </filter>
    <linearGradient id="paint0_linear_6_22" x1="16.7837" y1="8.58295" x2="16.7837" y2="22.001" gradientUnits="userSpaceOnUse">
      <stop stop-color="#E9AA6F"/>
      <stop offset="1" stop-color="#9F7045"/>
    </linearGradient>
    <linearGradient id="paint1_linear_6_22" x1="20.9183" y1="4.84272e-09" x2="21.1246" y2="12.0314" gradientUnits="userSpaceOnUse">
      <stop stop-color="#B98454"/>
      <stop offset="1" stop-color="#533B26"/>
    </linearGradient>
    <linearGradient id="paint2_linear_6_22" x1="7.51271" y1="5.98059" x2="7.51271" y2="12.7465" gradientUnits="userSpaceOnUse">
      <stop stop-color="#D79C65"/>
      <stop offset="1" stop-color="#715235"/>
    </linearGradient>
    <linearGradient id="paint3_linear_6_22" x1="12.836" y1="0.0717773" x2="12.875" y2="12.0313" gradientUnits="userSpaceOnUse">
      <stop stop-color="#B98454"/>
      <stop offset="1" stop-color="#533B26"/>
    </linearGradient>
    <linearGradient id="paint4_linear_6_22" x1="26.379" y1="5.99866" x2="23.187" y2="16.1562" gradientUnits="userSpaceOnUse">
      <stop stop-color="#B98454"/>
      <stop offset="1" stop-color="#533B26"/>
    </linearGradient>
  </defs>
</svg>
