<svg width="44" height="40" viewBox="0 0 44 40" fill="none" xmlns="http://www.w3.org/2000/svg">
  <g filter="url(#filter0_d_9_153)">
    <path fill-rule="evenodd" clip-rule="evenodd" d="M13.9983 31.5001C13.8527 31.4905 13.7071 31.483 13.5626 31.4702C12.7484 31.3964 12.0026 31.1387 11.3407 30.6746C10.1978 29.8727 9.46743 28.8055 9.17618 27.4636C9.06696 26.9589 9.03718 26.4499 9.07027 25.9367C9.10778 25.3336 9.23134 24.7487 9.42992 24.1777C9.74544 23.2646 10.222 22.437 10.8244 21.6735C11.2789 21.0983 11.7919 20.5775 12.3589 20.1049C12.8885 19.6622 13.3706 19.1736 13.8207 18.656C14.3878 18.0038 14.9007 17.312 15.4082 16.6159C15.8561 16 16.2963 15.3809 16.7718 14.7853C17.1292 14.3362 17.5065 13.9042 17.9269 13.5086C18.4531 13.0146 19.0334 12.5976 19.7174 12.326C20.2304 12.1228 20.7643 12.0148 21.3181 12.0031C21.9459 11.9892 22.5648 12.049 23.1748 12.1934C24.1081 12.4158 24.9168 12.8553 25.614 13.4958C26.0906 13.9363 26.4933 14.4335 26.8684 14.9542C27.2655 15.507 27.6307 16.0791 28.008 16.6458C28.4327 17.2831 28.8707 17.9108 29.3616 18.5042C29.8493 19.0955 30.3876 19.6408 30.9756 20.1402C31.6872 20.7443 32.3183 21.4158 32.8555 22.1707C33.3144 22.8176 33.6873 23.5062 33.9488 24.2494C34.1518 24.8289 34.2798 25.4213 34.3118 26.0329C34.3614 26.9621 34.1959 27.8518 33.7612 28.6879C33.3586 29.4631 32.775 30.0855 32.0424 30.5795C31.5041 30.943 30.9227 31.2189 30.2839 31.3718C30.0578 31.4263 29.8272 31.4659 29.5955 31.4883C29.5635 31.4915 29.5315 31.4969 29.5006 31.5022C29.4698 31.5193 29.4367 31.5065 29.4047 31.5108C29.3782 31.514 29.3506 31.5022 29.3252 31.5193H28.7295C28.7063 31.5022 28.6788 31.514 28.6534 31.5108H28.5276C28.019 31.4947 27.5259 31.3921 27.0339 31.282C26.1998 31.0938 25.3835 30.8457 24.5538 30.6415C23.882 30.4768 23.2046 30.3421 22.5162 30.2662C22.0385 30.2127 21.5597 30.2074 21.082 30.2234C20.7003 30.2362 20.3208 30.2929 19.9457 30.3603C19.2044 30.4961 18.4774 30.6885 17.7503 30.881C16.9814 31.0852 16.2114 31.2894 15.4248 31.4146C15.1048 31.4648 14.7838 31.5076 14.4584 31.5044C14.3911 31.5044 14.3249 31.5129 14.2576 31.5119C14.1715 31.5076 14.0866 31.5215 14.0016 31.5033L13.9983 31.5001Z" fill="url(#paint0_linear_9_153)"/>
    <path fill-rule="evenodd" clip-rule="evenodd" d="M28.6932 0.0149698C29.7655 0.140074 30.5841 0.668293 31.2096 1.50018C31.6388 2.07117 31.908 2.71167 32.0757 3.396C32.218 3.98516 32.272 4.58395 32.2522 5.19023C32.2147 6.30334 31.9455 7.35978 31.4468 8.36275C31.1015 9.05777 30.6558 9.68437 30.0877 10.2243C29.5813 10.7044 29.0087 11.0883 28.3413 11.3278C27.8724 11.4957 27.3892 11.5791 26.8895 11.5502C26.0234 11.5021 25.2887 11.1685 24.6709 10.5858C24.1447 10.0885 23.7861 9.48762 23.5368 8.82254C23.3636 8.3574 23.2544 7.8773 23.1981 7.38758C23.1584 7.05183 23.1429 6.71501 23.154 6.37819C23.1794 5.58372 23.3272 4.81064 23.5931 4.05894C23.8755 3.25913 24.277 2.5224 24.8242 1.86374C25.2843 1.30878 25.8227 0.840445 26.468 0.494002C26.9424 0.239516 27.4477 0.0748488 27.9883 0.0149698C28.0048 0.00641561 28.0225 0.00962342 28.039 0.00855415H28.0897C28.114 0.00534634 28.1405 0.0171083 28.1626 0H28.5134C28.5366 0.0171083 28.5619 0.00534634 28.5862 0.00855415H28.638C28.6546 0.00855415 28.6733 0.00427707 28.6899 0.0139005L28.6932 0.0149698Z" fill="url(#paint1_linear_9_153)"/>
    <path fill-rule="evenodd" clip-rule="evenodd" d="M4.0353 12.2837C4.05185 11.9662 4.11142 11.655 4.19637 11.3492C4.36296 10.7536 4.63545 10.2115 5.05908 9.74744C5.53346 9.22885 6.12037 8.89416 6.82202 8.75837C7.39238 8.6493 7.95501 8.69635 8.50883 8.86102C9.14538 9.05135 9.70691 9.37534 10.2078 9.79663C10.9844 10.4489 11.5416 11.2519 11.9266 12.1704C12.1285 12.6516 12.2675 13.1499 12.3447 13.6631C12.3822 13.9122 12.3999 14.1635 12.4054 14.4148C12.4142 14.8928 12.3645 15.3643 12.2421 15.8273C12.0788 16.4453 11.8041 17.0067 11.3661 17.4879C10.8631 18.0396 10.2365 18.3839 9.48517 18.5015C8.93356 18.5882 8.39189 18.5293 7.86124 18.3636C7.14857 18.1391 6.53628 17.7541 5.99792 17.2548C5.47279 16.7693 5.05577 16.2058 4.73033 15.5792C4.4115 14.9644 4.19196 14.3164 4.08605 13.6342C4.0673 13.5134 4.05295 13.3926 4.0353 13.2728C4.02206 13.2183 4.02758 13.1616 4.01324 13.1071C4.00662 13.0846 4.00993 13.0622 4.00883 13.0386C4.00441 13.0098 4.01765 12.9788 4 12.9499V12.5083C4.02868 12.4677 4.01434 12.4228 4.01765 12.38C4.01986 12.3479 4.01214 12.3137 4.03199 12.2837H4.0353Z" fill="url(#paint2_linear_9_153)"/>
    <path fill-rule="evenodd" clip-rule="evenodd" d="M11.5625 5.19457C11.5658 4.3167 11.6949 3.52544 11.9972 2.76412C12.2256 2.18886 12.5389 1.66171 12.9757 1.20834C13.4457 0.718612 14.005 0.367892 14.6791 0.203225C15.3532 0.0374884 16.0151 0.0845362 16.6671 0.31336C17.2408 0.515451 17.7416 0.833024 18.1851 1.234C18.8945 1.87342 19.403 2.6465 19.7649 3.51154C19.9944 4.06222 20.1532 4.63107 20.2437 5.21809C20.2944 5.55064 20.3242 5.88639 20.3319 6.22428C20.3397 6.64878 20.3121 7.07221 20.2393 7.49243C20.0892 8.36923 19.7825 9.18508 19.2354 9.90791C18.8945 10.3559 18.4819 10.7259 17.9744 10.9932C17.4073 11.2905 16.8006 11.4156 16.1585 11.3675C15.5782 11.3247 15.0432 11.1408 14.5434 10.8542C13.8925 10.48 13.3652 9.97634 12.9261 9.3829C12.4054 8.67825 12.0479 7.89982 11.8218 7.06258C11.6982 6.60494 11.6188 6.13873 11.5824 5.66719C11.568 5.48969 11.5559 5.31219 11.5614 5.19671L11.5625 5.19457Z" fill="url(#paint3_linear_9_153)"/>
    <path fill-rule="evenodd" clip-rule="evenodd" d="M40.0033 12.7981V12.8997C39.9636 13.7455 39.7297 14.5421 39.3524 15.3013C39.0556 15.8968 38.6772 16.439 38.2084 16.9191C37.6071 17.5371 36.9088 18.0193 36.0792 18.308C35.5816 18.4813 35.0697 18.5668 34.5402 18.5379C33.7591 18.4952 33.0773 18.2204 32.5037 17.7039C32.0304 17.2773 31.7182 16.7523 31.5207 16.1609C31.3431 15.6317 31.2714 15.0853 31.2901 14.5292C31.3287 13.3071 31.7281 12.1961 32.4187 11.1792C32.6515 10.8349 32.9196 10.5173 33.2196 10.2265C33.8363 9.63092 34.5424 9.17221 35.3786 8.91237C35.8541 8.76588 36.3395 8.69852 36.8371 8.73594C37.5972 8.79262 38.2602 9.07169 38.8162 9.5796C39.3182 10.0383 39.6337 10.605 39.8257 11.2402C39.9316 11.592 39.9934 11.9512 40.0055 12.3169V12.4196C40.0011 12.5447 40.0022 12.6698 40.0055 12.7949L40.0033 12.7981Z" fill="url(#paint4_linear_9_153)"/>
    <path d="M18.4376 25.876C19.5096 25.076 20.3576 24.352 20.9816 23.704C21.6056 23.048 21.9176 22.436 21.9176 21.868C21.9176 21.676 21.8736 21.528 21.7856 21.424C21.7056 21.32 21.5976 21.268 21.4616 21.268C21.3016 21.268 21.1736 21.352 21.0776 21.52C20.9896 21.68 20.9576 21.928 20.9816 22.264H18.4016C18.4256 21.52 18.5856 20.908 18.8816 20.428C19.1856 19.948 19.5776 19.596 20.0576 19.372C20.5376 19.148 21.0656 19.036 21.6416 19.036C22.6656 19.036 23.4136 19.284 23.8856 19.78C24.3656 20.268 24.6056 20.896 24.6056 21.664C24.6056 22.472 24.3456 23.232 23.8256 23.944C23.3136 24.648 22.6696 25.244 21.8936 25.732H24.6416V27.88H18.4376V25.876Z" fill="white"/>
  </g>
  <defs>
    <filter id="filter0_d_9_153" x="0" y="0" width="44.0055" height="39.5193" filterUnits="userSpaceOnUse" color-interpolation-filters="sRGB">
      <feFlood flood-opacity="0" result="BackgroundImageFix"/>
      <feColorMatrix in="SourceAlpha" type="matrix" values="0 0 0 0 0 0 0 0 0 0 0 0 0 0 0 0 0 0 127 0" result="hardAlpha"/>
      <feOffset dy="4"/>
      <feGaussianBlur stdDeviation="2"/>
      <feComposite in2="hardAlpha" operator="out"/>
      <feColorMatrix type="matrix" values="0 0 0 0 0 0 0 0 0 0 0 0 0 0 0 0 0 0 0.25 0"/>
      <feBlend mode="normal" in2="BackgroundImageFix" result="effect1_dropShadow_9_153"/>
      <feBlend mode="normal" in="SourceGraphic" in2="effect1_dropShadow_9_153" result="shape"/>
    </filter>
    <linearGradient id="paint0_linear_9_153" x1="21.6889" y1="12.0011" x2="21.6889" y2="31.5193" gradientUnits="userSpaceOnUse">
      <stop stop-color="white"/>
      <stop offset="1" stop-color="#9A9A9A"/>
    </linearGradient>
    <linearGradient id="paint1_linear_9_153" x1="27.7033" y1="0" x2="27.7033" y2="11.5559" gradientUnits="userSpaceOnUse">
      <stop stop-color="#ACACAC"/>
      <stop offset="1" stop-color="#FDFDFD"/>
    </linearGradient>
    <linearGradient id="paint2_linear_9_153" x1="8.20318" y1="8.69946" x2="8.20318" y2="18.5413" gradientUnits="userSpaceOnUse">
      <stop stop-color="#ACACAC"/>
      <stop offset="1" stop-color="#FDFDFD"/>
    </linearGradient>
    <linearGradient id="paint3_linear_9_153" x1="15.9466" y1="0.104492" x2="15.9466" y2="11.3775" gradientUnits="userSpaceOnUse">
      <stop stop-color="#ACACAC"/>
      <stop offset="1" stop-color="#FDFDFD"/>
    </linearGradient>
    <linearGradient id="paint4_linear_9_153" x1="35.6464" y1="8.72577" x2="35.6464" y2="18.5434" gradientUnits="userSpaceOnUse">
      <stop stop-color="#ACACAC"/>
      <stop offset="1" stop-color="#FDFDFD"/>
    </linearGradient>
  </defs>
</svg>
