<?xml version="1.0" encoding="utf-8"?>
<!-- Generator: Adobe Illustrator 28.2.0, SVG Export Plug-In . SVG Version: 6.00 Build 0)  -->
<svg version="1.1" id="Calque_1" xmlns="http://www.w3.org/2000/svg" xmlns:xlink="http://www.w3.org/1999/xlink" x="0px" y="0px"
	 viewBox="0 0 36 31.5" style="enable-background:new 0 0 36 31.5;" xml:space="preserve">
<style type="text/css">
	.st0{fill-rule:evenodd;clip-rule:evenodd;fill:url(#SVGID_1_);}
	.st1{fill-rule:evenodd;clip-rule:evenodd;fill:url(#SVGID_00000025436546639792805740000013857832094318881159_);}
	.st2{fill-rule:evenodd;clip-rule:evenodd;fill:url(#SVGID_00000030450846042065862020000018310076941409657022_);}
	.st3{fill-rule:evenodd;clip-rule:evenodd;fill:url(#SVGID_00000009570592347899033980000009924115253708410279_);}
	.st4{fill-rule:evenodd;clip-rule:evenodd;fill:url(#SVGID_00000056417166394316145620000016308683725478166919_);}
	.st5{fill:#FFFFFF;}
</style>
<linearGradient id="SVGID_1_" gradientUnits="userSpaceOnUse" x1="17.6889" y1="21.9989" x2="17.6889" y2="2.4807" gradientTransform="matrix(1 0 0 -1 0 34)">
	<stop  offset="0" style="stop-color:#FFFFFF"/>
	<stop  offset="1" style="stop-color:#9A9A9A"/>
</linearGradient>
<path class="st0" d="M10,31.5c-0.1,0-0.3,0-0.4,0c-0.8-0.1-1.6-0.3-2.2-0.8c-1.1-0.8-1.9-1.9-2.2-3.2c-0.1-0.5-0.1-1-0.1-1.5
	c0-0.6,0.2-1.2,0.4-1.8c0.3-0.9,0.8-1.7,1.4-2.5c0.5-0.6,1-1.1,1.5-1.6c0.5-0.4,1-0.9,1.5-1.4c0.6-0.7,1.1-1.3,1.6-2
	c0.4-0.6,0.9-1.2,1.4-1.8c0.4-0.4,0.7-0.9,1.2-1.3c0.5-0.5,1.1-0.9,1.8-1.2c0.5-0.2,1-0.3,1.6-0.3c0.6,0,1.2,0,1.9,0.2
	c0.9,0.2,1.7,0.7,2.4,1.3c0.5,0.4,0.9,0.9,1.3,1.5c0.4,0.6,0.8,1.1,1.1,1.7c0.4,0.6,0.9,1.3,1.4,1.9c0.5,0.6,1,1.1,1.6,1.6
	c0.7,0.6,1.3,1.3,1.9,2c0.5,0.6,0.8,1.3,1.1,2.1c0.2,0.6,0.3,1.2,0.4,1.8c0,0.9-0.1,1.8-0.6,2.7c-0.4,0.8-1,1.4-1.7,1.9
	c-0.5,0.4-1.1,0.6-1.8,0.8c-0.2,0.1-0.5,0.1-0.7,0.1c0,0-0.1,0-0.1,0c0,0-0.1,0-0.1,0c0,0-0.1,0-0.1,0h-0.6c0,0-0.1,0-0.1,0h-0.1
	c-0.5,0-1-0.1-1.5-0.2c-0.8-0.2-1.7-0.4-2.5-0.6c-0.7-0.2-1.3-0.3-2-0.4c-0.5-0.1-1-0.1-1.4,0c-0.4,0-0.8,0.1-1.1,0.1
	c-0.7,0.1-1.5,0.3-2.2,0.5c-0.8,0.2-1.5,0.4-2.3,0.5c-0.3,0.1-0.6,0.1-1,0.1c-0.1,0-0.1,0-0.2,0C10.2,31.5,10.1,31.5,10,31.5
	L10,31.5z"/>
<linearGradient id="SVGID_00000120552405810158523330000006207892505000092575_" gradientUnits="userSpaceOnUse" x1="23.7033" y1="34" x2="23.7033" y2="22.4442" gradientTransform="matrix(1 0 0 -1 0 34)">
	<stop  offset="0" style="stop-color:#ACACAC"/>
	<stop  offset="1" style="stop-color:#FDFDFD"/>
</linearGradient>
<path style="fill-rule:evenodd;clip-rule:evenodd;fill:url(#SVGID_00000120552405810158523330000006207892505000092575_);" d="
	M24.7,0c1.1,0.1,1.9,0.7,2.5,1.5c0.4,0.6,0.7,1.2,0.9,1.9c0.1,0.6,0.2,1.2,0.2,1.8c0,1.1-0.3,2.2-0.8,3.2c-0.3,0.7-0.8,1.3-1.4,1.9
	c-0.5,0.5-1.1,0.9-1.7,1.1c-0.5,0.2-1,0.3-1.5,0.2c-0.9,0-1.6-0.4-2.2-1c-0.5-0.5-0.9-1.1-1.1-1.8c-0.2-0.5-0.3-0.9-0.3-1.4
	c0-0.3-0.1-0.7,0-1c0-0.8,0.2-1.6,0.4-2.3c0.3-0.8,0.7-1.5,1.2-2.2c0.5-0.6,1-1,1.6-1.4c0.5-0.3,1-0.4,1.5-0.5c0,0,0,0,0.1,0h0.1
	c0,0,0.1,0,0.1,0h0.4c0,0,0,0,0.1,0L24.7,0C24.7,0,24.7,0,24.7,0L24.7,0z"/>
<linearGradient id="SVGID_00000062912421160182026830000000849140247671329726_" gradientUnits="userSpaceOnUse" x1="4.2032" y1="25.3005" x2="4.2032" y2="15.4587" gradientTransform="matrix(1 0 0 -1 0 34)">
	<stop  offset="0" style="stop-color:#ACACAC"/>
	<stop  offset="1" style="stop-color:#FDFDFD"/>
</linearGradient>
<path style="fill-rule:evenodd;clip-rule:evenodd;fill:url(#SVGID_00000062912421160182026830000000849140247671329726_);" d="
	M0,12.3c0-0.3,0.1-0.6,0.2-0.9c0.2-0.6,0.4-1.1,0.9-1.6c0.5-0.5,1.1-0.9,1.8-1C3.4,8.6,4,8.7,4.5,8.9c0.6,0.2,1.2,0.5,1.7,0.9
	c0.8,0.7,1.3,1.5,1.7,2.4c0.2,0.5,0.3,1,0.4,1.5c0,0.2,0.1,0.5,0.1,0.8c0,0.5,0,0.9-0.2,1.4c-0.2,0.6-0.4,1.2-0.9,1.7
	c-0.5,0.6-1.1,0.9-1.9,1c-0.6,0.1-1.1,0-1.6-0.1c-0.7-0.2-1.3-0.6-1.9-1.1c-0.5-0.5-0.9-1-1.3-1.7c-0.3-0.6-0.5-1.3-0.6-1.9
	c0-0.1,0-0.2-0.1-0.4c0-0.1,0-0.1,0-0.2c0,0,0,0,0-0.1c0,0,0-0.1,0-0.1v-0.4C0,12.5,0,12.4,0,12.3C0,12.3,0,12.3,0,12.3L0,12.3z"/>
<linearGradient id="SVGID_00000116919994832983856870000008472677720285314971_" gradientUnits="userSpaceOnUse" x1="11.9466" y1="33.8955" x2="11.9466" y2="22.6225" gradientTransform="matrix(1 0 0 -1 0 34)">
	<stop  offset="0" style="stop-color:#ACACAC"/>
	<stop  offset="1" style="stop-color:#FDFDFD"/>
</linearGradient>
<path style="fill-rule:evenodd;clip-rule:evenodd;fill:url(#SVGID_00000116919994832983856870000008472677720285314971_);" d="
	M7.6,5.2c0-0.9,0.1-1.7,0.4-2.4c0.2-0.6,0.5-1.1,1-1.6c0.5-0.5,1-0.8,1.7-1c0.7-0.2,1.3-0.1,2,0.1c0.6,0.2,1.1,0.5,1.5,0.9
	c0.7,0.6,1.2,1.4,1.6,2.3c0.2,0.6,0.4,1.1,0.5,1.7c0.1,0.3,0.1,0.7,0.1,1c0,0.4,0,0.8-0.1,1.3c-0.2,0.9-0.5,1.7-1,2.4
	c-0.3,0.4-0.8,0.8-1.3,1.1c-0.6,0.3-1.2,0.4-1.8,0.4c-0.6,0-1.1-0.2-1.6-0.5C9.9,10.5,9.4,10,8.9,9.4C8.4,8.7,8,7.9,7.8,7.1
	C7.7,6.6,7.6,6.1,7.6,5.7C7.6,5.5,7.6,5.3,7.6,5.2L7.6,5.2z"/>
<linearGradient id="SVGID_00000049919519488365315910000012247806421267776912_" gradientUnits="userSpaceOnUse" x1="31.6464" y1="25.2742" x2="31.6464" y2="15.4566" gradientTransform="matrix(1 0 0 -1 0 34)">
	<stop  offset="0" style="stop-color:#ACACAC"/>
	<stop  offset="1" style="stop-color:#FDFDFD"/>
</linearGradient>
<path style="fill-rule:evenodd;clip-rule:evenodd;fill:url(#SVGID_00000049919519488365315910000012247806421267776912_);" d="
	M36,12.8v0.1c0,0.8-0.3,1.6-0.7,2.4c-0.3,0.6-0.7,1.1-1.1,1.6c-0.6,0.6-1.3,1.1-2.1,1.4c-0.5,0.2-1,0.3-1.5,0.2
	c-0.8,0-1.5-0.3-2-0.8c-0.5-0.4-0.8-1-1-1.5c-0.2-0.5-0.2-1.1-0.2-1.6c0-1.2,0.4-2.3,1.1-3.3c0.2-0.3,0.5-0.7,0.8-1
	c0.6-0.6,1.3-1.1,2.2-1.3c0.5-0.1,1-0.2,1.5-0.2c0.8,0.1,1.4,0.3,2,0.8c0.5,0.5,0.8,1,1,1.7c0.1,0.4,0.2,0.7,0.2,1.1v0.1
	C36,12.5,36,12.7,36,12.8L36,12.8z"/>
<path class="st5" d="M14.4,25.9c1.1-0.8,1.9-1.5,2.5-2.2c0.6-0.7,0.9-1.3,0.9-1.8c0-0.2,0-0.3-0.1-0.4c-0.1-0.1-0.2-0.2-0.3-0.2
	c-0.2,0-0.3,0.1-0.4,0.3C17,21.7,17,21.9,17,22.3h-2.6c0-0.7,0.2-1.4,0.5-1.8c0.3-0.5,0.7-0.8,1.2-1.1c0.5-0.2,1-0.3,1.6-0.3
	c1,0,1.8,0.2,2.2,0.7c0.5,0.5,0.7,1.1,0.7,1.9c0,0.8-0.3,1.6-0.8,2.3c-0.5,0.7-1.2,1.3-1.9,1.8h2.7v2.1h-6.2V25.9z"/>
</svg>
