<svg width="60" height="54" viewBox="0 0 60 54" fill="none" xmlns="http://www.w3.org/2000/svg">
  <path fill-rule="evenodd" clip-rule="evenodd" d="M16.664 53.973C16.4213 53.9567 16.1786 53.9441 15.9377 53.9225C14.5808 53.798 13.3378 53.3631 12.2346 52.58C10.3298 51.2267 9.11254 49.4259 8.62713 47.1614C8.4451 46.3097 8.39546 45.4508 8.45062 44.5847C8.51313 43.5671 8.71906 42.5801 9.05003 41.6165C9.57589 40.0756 10.3702 38.679 11.3741 37.3906C12.1317 36.4199 12.9867 35.5411 13.9317 34.7436C14.8143 33.9966 15.6178 33.172 16.368 32.2986C17.3131 31.198 18.1681 30.0305 19.0139 28.8559C19.7604 27.8165 20.494 26.7718 21.2865 25.7667C21.8822 25.0089 22.511 24.2799 23.2116 23.6123C24.0886 22.7787 25.0558 22.075 26.1958 21.6166C27.0508 21.2738 27.9407 21.0916 28.8637 21.0717C29.9099 21.0483 30.9414 21.1493 31.9582 21.3929C33.5137 21.7682 34.8615 22.5098 36.0236 23.5906C36.8179 24.3341 37.489 25.1731 38.1141 26.0518C38.7761 26.9847 39.3847 27.9501 40.0135 28.9064C40.7214 29.9818 41.4514 31.041 42.2696 32.0424C43.0823 33.0402 43.9795 33.9605 44.9596 34.8031C46.1455 35.8226 47.1972 36.9558 48.0927 38.2297C48.8576 39.3213 49.4791 40.4834 49.9148 41.7374C50.2531 42.7154 50.4664 43.715 50.5198 44.7471C50.6025 46.3151 50.3267 47.8164 49.6022 49.2274C48.9311 50.5356 47.9585 51.5858 46.7376 52.4194C45.8403 53.0329 44.8713 53.4984 43.8067 53.7565C43.4298 53.8485 43.0455 53.9152 42.6594 53.9531C42.606 53.9585 42.5527 53.9676 42.5012 53.9766C42.4498 54.0055 42.3946 53.9838 42.3413 53.991C42.2971 53.9964 42.2512 53.9766 42.2089 54.0055H41.216C41.1774 53.9766 41.1314 53.9964 41.0891 53.991H40.8795C40.0319 53.964 39.21 53.7907 38.3899 53.6049C36.9999 53.2873 35.6393 52.8687 34.2566 52.524C33.1368 52.2462 32.0079 52.0188 30.8605 51.8907C30.0644 51.8005 29.2664 51.7915 28.4702 51.8185C27.834 51.8402 27.2015 51.9358 26.5764 52.0495C25.3408 52.2787 24.1291 52.6034 22.9174 52.9282C21.6358 53.2729 20.3524 53.6175 19.0414 53.8286C18.5082 53.9134 17.9732 53.9856 17.4308 53.9802C17.3186 53.9802 17.2083 53.9946 17.0961 53.9928C16.9527 53.9856 16.8111 54.0091 16.6695 53.9784L16.664 53.973Z" fill="url(#paint0_linear_9_152)"/>
  <path fill-rule="evenodd" clip-rule="evenodd" d="M41.1553 0.0252615C42.9425 0.236375 44.3068 1.12774 45.3493 2.53156C46.0646 3.49511 46.5132 4.57594 46.7927 5.73075C47.0299 6.72496 47.12 7.73542 47.0869 8.75851C47.0244 10.6369 46.5757 12.4196 45.7447 14.1121C45.1692 15.285 44.4263 16.3424 43.4794 17.2536C42.6354 18.0638 41.6812 18.7115 40.5688 19.1157C39.7873 19.399 38.982 19.5397 38.1491 19.491C36.7057 19.4098 35.4811 18.8469 34.4515 17.8635C33.5744 17.0244 32.9768 16.0104 32.5613 14.888C32.2726 14.1031 32.0906 13.2929 31.9968 12.4665C31.9306 11.9 31.9049 11.3316 31.9233 10.7632C31.9655 9.42253 32.2119 8.11795 32.6551 6.84947C33.1258 5.49978 33.795 4.25656 34.707 3.14505C35.4738 2.20857 36.371 1.41825 37.4467 0.833629C38.2373 0.404184 39.0794 0.126307 39.9804 0.0252615C40.008 0.0108263 40.0374 0.0162395 40.065 0.0144351H40.1495C40.19 0.00902195 40.2341 0.0288703 40.2709 0H40.8556C40.8942 0.0288703 40.9365 0.00902195 40.977 0.0144351H41.0634C41.0909 0.0144351 41.1222 0.00721756 41.1498 0.0234571L41.1553 0.0252615Z" fill="url(#paint1_linear_9_152)"/>
  <path fill-rule="evenodd" clip-rule="evenodd" d="M0.0588379 20.7289C0.0864182 20.193 0.185707 19.6679 0.327286 19.1519C0.604928 18.1468 1.05908 17.232 1.76514 16.4489C2.55577 15.5738 3.53395 15.009 4.70336 14.7798C5.65396 14.5958 6.59169 14.6752 7.51471 14.953C8.57563 15.2742 9.51152 15.821 10.3463 16.5319C11.6407 17.6326 12.5693 18.9877 13.211 20.5376C13.5474 21.3496 13.7791 22.1905 13.9078 23.0566C13.9703 23.477 13.9998 23.901 14.0089 24.325C14.0237 25.1316 13.9409 25.9273 13.7368 26.7086C13.4647 27.7516 13.0069 28.6989 12.2769 29.5109C11.4385 30.4419 10.3941 31.0229 9.14195 31.2214C8.2226 31.3676 7.31981 31.2683 6.4354 30.9887C5.24761 30.6097 4.22714 29.9602 3.32986 29.1175C2.45465 28.2983 1.75962 27.3474 1.21721 26.29C0.68583 25.2525 0.319931 24.159 0.143417 23.0078C0.11216 22.8039 0.0882569 22.6001 0.0588379 22.398C0.0367737 22.3059 0.0459671 22.2103 0.0220642 22.1183C0.0110321 22.0804 0.0165482 22.0425 0.0147095 22.0028C0.00735474 21.9541 0.029419 21.9018 0 21.853V21.1078C0.0478058 21.0393 0.0239029 20.9635 0.029419 20.8913C0.0330963 20.8372 0.0202255 20.7794 0.0533219 20.7289H0.0588379Z" fill="url(#paint2_linear_9_152)"/>
  <path fill-rule="evenodd" clip-rule="evenodd" d="M12.6042 8.76578C12.6097 7.28437 12.8248 5.94912 13.3286 4.6644C13.7093 3.69363 14.2314 2.80407 14.9596 2.03901C15.7428 1.2126 16.6751 0.620757 17.7985 0.342881C18.9219 0.0632006 20.0251 0.142594 21.1118 0.528733C22.0679 0.869763 22.9027 1.40567 23.6418 2.08231C24.8241 3.16134 25.6717 4.46591 26.2748 5.92567C26.6573 6.85493 26.922 7.81486 27.0728 8.80547C27.1574 9.36664 27.207 9.93322 27.2199 10.5034C27.2328 11.2197 27.1868 11.9343 27.0655 12.6434C26.8154 14.123 26.3042 15.4998 25.3923 16.7195C24.8241 17.4756 24.1364 18.0999 23.2906 18.551C22.3456 19.0526 21.3343 19.2637 20.2642 19.1825C19.297 19.1103 18.4053 18.8 17.5723 18.3164C16.4875 17.6849 15.6086 16.835 14.8768 15.8336C14.009 14.6445 13.4132 13.3309 13.0363 11.918C12.8304 11.1458 12.698 10.3591 12.6373 9.56332C12.6134 9.26379 12.5932 8.96426 12.6024 8.76939L12.6042 8.76578Z" fill="url(#paint3_linear_9_152)"/>
  <path fill-rule="evenodd" clip-rule="evenodd" d="M60.0055 21.5968V21.7682C59.9393 23.1955 59.5495 24.5397 58.9207 25.8209C58.4261 26.8259 57.7954 27.7407 57.014 28.5509C56.0119 29.5938 54.848 30.4076 53.4653 30.8948C52.6361 31.1871 51.7829 31.3315 50.9004 31.2828C49.5986 31.2106 48.4623 30.7468 47.5061 29.8753C46.7174 29.1554 46.197 28.2694 45.8679 27.2716C45.5718 26.3784 45.4523 25.4564 45.4836 24.5181C45.5479 22.4557 46.2136 20.5809 47.3646 18.8649C47.7525 18.2839 48.1993 17.748 48.6995 17.2572C49.7273 16.2522 50.904 15.4781 52.2978 15.0396C53.0902 14.7924 53.8993 14.6787 54.7285 14.7419C55.9954 14.8375 57.1004 15.3085 58.0271 16.1656C58.8637 16.9397 59.3896 17.896 59.7095 18.9678C59.886 19.5614 59.989 20.1677 60.0092 20.7848V20.958C60.0019 21.1691 60.0037 21.3803 60.0092 21.5914L60.0055 21.5968Z" fill="url(#paint4_linear_9_152)"/>
  <path d="M24.8725 34.54V30.38H31.6525V45H26.9925V34.54H24.8725Z" fill="white"/>
  <defs>
    <linearGradient id="paint0_linear_9_152" x1="37.5055" y1="16.5018" x2="29.4816" y2="54.0055" gradientUnits="userSpaceOnUse">
      <stop stop-color="#FFE5B1"/>
      <stop offset="1" stop-color="#D2BF9B"/>
    </linearGradient>
    <linearGradient id="paint1_linear_9_152" x1="39.5055" y1="0" x2="39.5055" y2="19.5005" gradientUnits="userSpaceOnUse">
      <stop stop-color="#F3CD82"/>
      <stop offset="1" stop-color="#F5F5F5"/>
    </linearGradient>
    <linearGradient id="paint2_linear_9_152" x1="7.0053" y1="14.6804" x2="7.0053" y2="31.2885" gradientUnits="userSpaceOnUse">
      <stop stop-color="#EBCF97"/>
      <stop offset="1" stop-color="#F5F5F5"/>
    </linearGradient>
    <linearGradient id="paint3_linear_9_152" x1="19.9111" y1="0.17627" x2="19.9111" y2="19.1994" gradientUnits="userSpaceOnUse">
      <stop stop-color="#F3CD82"/>
      <stop offset="1" stop-color="#F5F5F5"/>
    </linearGradient>
    <linearGradient id="paint4_linear_9_152" x1="52.744" y1="14.7247" x2="52.744" y2="31.2921" gradientUnits="userSpaceOnUse">
      <stop stop-color="#F3CD82"/>
      <stop offset="1" stop-color="#F5F5F5"/>
    </linearGradient>
  </defs>
</svg>
