<svg width="36" height="33" viewBox="0 0 36 33" fill="none" xmlns="http://www.w3.org/2000/svg">
  <path fill-rule="evenodd" clip-rule="evenodd" d="M9.99832 31.5001C9.85269 31.4905 9.70707 31.483 9.56255 31.4702C8.74838 31.3964 8.00261 31.1387 7.34068 30.6746C6.19775 29.8727 5.46743 28.8055 5.17618 27.4636C5.06696 26.9589 5.03718 26.4499 5.07027 25.9367C5.10778 25.3336 5.23134 24.7487 5.42992 24.1777C5.74544 23.2646 6.22203 22.437 6.82438 21.6735C7.2789 21.0983 7.7919 20.5775 8.35895 20.1049C8.88849 19.6622 9.37059 19.1736 9.8207 18.656C10.3878 18.0038 10.9007 17.312 11.4082 16.6159C11.8561 16 12.2963 15.3809 12.7718 14.7853C13.1292 14.3362 13.5065 13.9042 13.9269 13.5086C14.4531 13.0146 15.0334 12.5976 15.7174 12.326C16.2304 12.1228 16.7643 12.0148 17.3181 12.0031C17.9459 11.9892 18.5648 12.049 19.1748 12.1934C20.1081 12.4158 20.9168 12.8553 21.614 13.4958C22.0906 13.9363 22.4933 14.4335 22.8684 14.9542C23.2655 15.507 23.6307 16.0791 24.008 16.6458C24.4327 17.2831 24.8707 17.9108 25.3616 18.5042C25.8493 19.0955 26.3876 19.6408 26.9756 20.1402C27.6872 20.7443 28.3183 21.4158 28.8555 22.1707C29.3144 22.8176 29.6873 23.5062 29.9488 24.2494C30.1518 24.8289 30.2798 25.4213 30.3118 26.0329C30.3614 26.9621 30.1959 27.8518 29.7612 28.6879C29.3586 29.4631 28.775 30.0855 28.0424 30.5795C27.5041 30.943 26.9227 31.2189 26.2839 31.3718C26.0578 31.4263 25.8272 31.4659 25.5955 31.4883C25.5635 31.4915 25.5315 31.4969 25.5006 31.5022C25.4698 31.5193 25.4367 31.5065 25.4047 31.5108C25.3782 31.514 25.3506 31.5022 25.3252 31.5193H24.7295C24.7063 31.5022 24.6788 31.514 24.6534 31.5108H24.5276C24.019 31.4947 23.5259 31.3921 23.0339 31.282C22.1998 31.0938 21.3835 30.8457 20.5538 30.6415C19.882 30.4768 19.2046 30.3421 18.5162 30.2662C18.0385 30.2127 17.5597 30.2074 17.082 30.2234C16.7003 30.2362 16.3208 30.2929 15.9457 30.3603C15.2044 30.4961 14.4774 30.6885 13.7503 30.881C12.9814 31.0852 12.2114 31.2894 11.4248 31.4146C11.1048 31.4648 10.7838 31.5076 10.4584 31.5044C10.3911 31.5044 10.3249 31.5129 10.2576 31.5119C10.1715 31.5076 10.0866 31.5215 10.0016 31.5033L9.99832 31.5001Z" fill="url(#paint0_linear_9_153)"/>
  <path fill-rule="evenodd" clip-rule="evenodd" d="M24.6932 0.0149698C25.7655 0.140074 26.5841 0.668293 27.2096 1.50018C27.6388 2.07117 27.908 2.71167 28.0757 3.396C28.218 3.98516 28.272 4.58395 28.2522 5.19023C28.2147 6.30334 27.9455 7.35978 27.4468 8.36275C27.1015 9.05777 26.6558 9.68437 26.0877 10.2243C25.5813 10.7044 25.0087 11.0883 24.3413 11.3278C23.8724 11.4957 23.3892 11.5791 22.8895 11.5502C22.0234 11.5021 21.2887 11.1685 20.6709 10.5858C20.1447 10.0885 19.7861 9.48762 19.5368 8.82254C19.3636 8.3574 19.2544 7.8773 19.1981 7.38758C19.1584 7.05183 19.1429 6.71501 19.154 6.37819C19.1794 5.58372 19.3272 4.81064 19.5931 4.05894C19.8755 3.25913 20.277 2.5224 20.8242 1.86374C21.2843 1.30878 21.8227 0.840445 22.468 0.494002C22.9424 0.239516 23.4477 0.0748488 23.9883 0.0149698C24.0048 0.00641561 24.0225 0.00962342 24.039 0.00855415H24.0897C24.114 0.00534634 24.1405 0.0171083 24.1626 0H24.5134C24.5366 0.0171083 24.5619 0.00534634 24.5862 0.00855415H24.638C24.6546 0.00855415 24.6733 0.00427707 24.6899 0.0139005L24.6932 0.0149698Z" fill="url(#paint1_linear_9_153)"/>
  <path fill-rule="evenodd" clip-rule="evenodd" d="M0.0353028 12.2837C0.0518509 11.9662 0.111424 11.655 0.196372 11.3492C0.362957 10.7536 0.63545 10.2115 1.05908 9.74744C1.53346 9.22885 2.12037 8.89416 2.82202 8.75837C3.39238 8.6493 3.95501 8.69635 4.50883 8.86102C5.14538 9.05135 5.70691 9.37534 6.20777 9.79663C6.98443 10.4489 7.54155 11.2519 7.92657 12.1704C8.12846 12.6516 8.26747 13.1499 8.34469 13.6631C8.3822 13.9122 8.39985 14.1635 8.40537 14.4148C8.41419 14.8928 8.36455 15.3643 8.24209 15.8273C8.07882 16.4453 7.80412 17.0067 7.36614 17.4879C6.86308 18.0396 6.23645 18.3839 5.48517 18.5015C4.93356 18.5882 4.39189 18.5293 3.86124 18.3636C3.14857 18.1391 2.53628 17.7541 1.99792 17.2548C1.47279 16.7693 1.05577 16.2058 0.730326 15.5792C0.411498 14.9644 0.191959 14.3164 0.0860505 13.6342C0.0672959 13.5134 0.0529542 13.3926 0.0353028 13.2728C0.0220642 13.2183 0.0275803 13.1616 0.0132385 13.1071C0.00661927 13.0846 0.0099289 13.0622 0.00882569 13.0386C0.00441285 13.0098 0.0176514 12.9788 0 12.9499V12.5083C0.0286835 12.4677 0.0143418 12.4228 0.0176514 12.38C0.0198578 12.3479 0.0121353 12.3137 0.0319931 12.2837H0.0353028Z" fill="url(#paint2_linear_9_153)"/>
  <path fill-rule="evenodd" clip-rule="evenodd" d="M7.56252 5.19457C7.56583 4.3167 7.69491 3.52544 7.99719 2.76412C8.22555 2.18886 8.53886 1.66171 8.97573 1.20834C9.4457 0.718612 10.005 0.367892 10.6791 0.203225C11.3532 0.0374884 12.0151 0.0845362 12.6671 0.31336C13.2408 0.515451 13.7416 0.833024 14.1851 1.234C14.8945 1.87342 15.403 2.6465 15.7649 3.51154C15.9944 4.06222 16.1532 4.63107 16.2437 5.21809C16.2944 5.55064 16.3242 5.88639 16.3319 6.22428C16.3397 6.64878 16.3121 7.07221 16.2393 7.49243C16.0892 8.36923 15.7825 9.18508 15.2354 9.90791C14.8945 10.3559 14.4819 10.7259 13.9744 10.9932C13.4073 11.2905 12.8006 11.4156 12.1585 11.3675C11.5782 11.3247 11.0432 11.1408 10.5434 10.8542C9.8925 10.48 9.36517 9.97634 8.92609 9.3829C8.40537 8.67825 8.04793 7.89982 7.82178 7.06258C7.69822 6.60494 7.61878 6.13873 7.58238 5.66719C7.56804 5.48969 7.5559 5.31219 7.56142 5.19671L7.56252 5.19457Z" fill="url(#paint3_linear_9_153)"/>
  <path fill-rule="evenodd" clip-rule="evenodd" d="M36.0033 12.7981V12.8997C35.9636 13.7455 35.7297 14.5421 35.3524 15.3013C35.0556 15.8968 34.6772 16.439 34.2084 16.9191C33.6071 17.5371 32.9088 18.0193 32.0792 18.308C31.5816 18.4813 31.0697 18.5668 30.5402 18.5379C29.7591 18.4952 29.0773 18.2204 28.5037 17.7039C28.0304 17.2773 27.7182 16.7523 27.5207 16.1609C27.3431 15.6317 27.2714 15.0853 27.2901 14.5292C27.3287 13.3071 27.7281 12.1961 28.4187 11.1792C28.6515 10.8349 28.9196 10.5173 29.2196 10.2265C29.8363 9.63092 30.5424 9.17221 31.3786 8.91237C31.8541 8.76588 32.3395 8.69852 32.8371 8.73594C33.5972 8.79262 34.2602 9.07169 34.8162 9.5796C35.3182 10.0383 35.6337 10.605 35.8257 11.2402C35.9316 11.592 35.9934 11.9512 36.0055 12.3169V12.4196C36.0011 12.5447 36.0022 12.6698 36.0055 12.7949L36.0033 12.7981Z" fill="url(#paint4_linear_9_153)"/>
  <path d="M14.4376 25.876C15.5096 25.076 16.3576 24.352 16.9816 23.704C17.6056 23.048 17.9176 22.436 17.9176 21.868C17.9176 21.676 17.8736 21.528 17.7856 21.424C17.7056 21.32 17.5976 21.268 17.4616 21.268C17.3016 21.268 17.1736 21.352 17.0776 21.52C16.9896 21.68 16.9576 21.928 16.9816 22.264H14.4016C14.4256 21.52 14.5856 20.908 14.8816 20.428C15.1856 19.948 15.5776 19.596 16.0576 19.372C16.5376 19.148 17.0656 19.036 17.6416 19.036C18.6656 19.036 19.4136 19.284 19.8856 19.78C20.3656 20.268 20.6056 20.896 20.6056 21.664C20.6056 22.472 20.3456 23.232 19.8256 23.944C19.3136 24.648 18.6696 25.244 17.8936 25.732H20.6416V27.88H14.4376V25.876Z" fill="white"/>
  <defs>
    <linearGradient id="paint0_linear_9_153" x1="17.6889" y1="12.0011" x2="17.6889" y2="31.5193" gradientUnits="userSpaceOnUse">
      <stop stop-color="white"/>
      <stop offset="1" stop-color="#9A9A9A"/>
    </linearGradient>
    <linearGradient id="paint1_linear_9_153" x1="23.7033" y1="0" x2="23.7033" y2="11.5559" gradientUnits="userSpaceOnUse">
      <stop stop-color="#ACACAC"/>
      <stop offset="1" stop-color="#FDFDFD"/>
    </linearGradient>
    <linearGradient id="paint2_linear_9_153" x1="4.20318" y1="8.69946" x2="4.20318" y2="18.5413" gradientUnits="userSpaceOnUse">
      <stop stop-color="#ACACAC"/>
      <stop offset="1" stop-color="#FDFDFD"/>
    </linearGradient>
    <linearGradient id="paint3_linear_9_153" x1="11.9466" y1="0.104492" x2="11.9466" y2="11.3775" gradientUnits="userSpaceOnUse">
      <stop stop-color="#ACACAC"/>
      <stop offset="1" stop-color="#FDFDFD"/>
    </linearGradient>
    <linearGradient id="paint4_linear_9_153" x1="31.6464" y1="8.72577" x2="31.6464" y2="18.5434" gradientUnits="userSpaceOnUse">
      <stop stop-color="#ACACAC"/>
      <stop offset="1" stop-color="#FDFDFD"/>
    </linearGradient>
  </defs>
</svg>
