<svg width="68" height="62" viewBox="0 0 68 62" fill="none" xmlns="http://www.w3.org/2000/svg">
  <g filter="url(#filter0_d_9_152)">
    <path fill-rule="evenodd" clip-rule="evenodd" d="M20.664 53.973C20.4213 53.9567 20.1786 53.9441 19.9377 53.9225C18.5808 53.798 17.3378 53.3631 16.2346 52.58C14.3298 51.2267 13.1125 49.4259 12.6271 47.1614C12.4451 46.3097 12.3955 45.4508 12.4506 44.5847C12.5131 43.5671 12.7191 42.5801 13.05 41.6165C13.5759 40.0756 14.3702 38.679 15.3741 37.3906C16.1317 36.4199 16.9867 35.5411 17.9317 34.7436C18.8143 33.9966 19.6178 33.172 20.368 32.2986C21.3131 31.198 22.1681 30.0305 23.0139 28.8559C23.7604 27.8165 24.494 26.7718 25.2865 25.7667C25.8822 25.0089 26.511 24.2799 27.2116 23.6123C28.0886 22.7787 29.0558 22.075 30.1958 21.6166C31.0508 21.2738 31.9407 21.0916 32.8637 21.0717C33.9099 21.0483 34.9414 21.1493 35.9582 21.3929C37.5137 21.7682 38.8615 22.5098 40.0236 23.5906C40.8179 24.3341 41.489 25.1731 42.1141 26.0518C42.7761 26.9847 43.3847 27.9501 44.0135 28.9064C44.7214 29.9818 45.4514 31.041 46.2696 32.0424C47.0823 33.0402 47.9795 33.9605 48.9596 34.8031C50.1455 35.8226 51.1972 36.9558 52.0927 38.2297C52.8576 39.3213 53.4791 40.4834 53.9148 41.7374C54.2531 42.7154 54.4664 43.715 54.5198 44.7471C54.6025 46.3151 54.3267 47.8164 53.6022 49.2274C52.9311 50.5356 51.9585 51.5858 50.7376 52.4194C49.8403 53.0329 48.8713 53.4984 47.8067 53.7565C47.4298 53.8485 47.0455 53.9152 46.6594 53.9531C46.606 53.9585 46.5527 53.9676 46.5012 53.9766C46.4498 54.0055 46.3946 53.9838 46.3413 53.991C46.2971 53.9964 46.2512 53.9766 46.2089 54.0055H45.216C45.1774 53.9766 45.1314 53.9964 45.0891 53.991H44.8795C44.0319 53.964 43.21 53.7907 42.3899 53.6049C40.9999 53.2873 39.6393 52.8687 38.2566 52.524C37.1368 52.2462 36.0079 52.0188 34.8605 51.8907C34.0644 51.8005 33.2664 51.7915 32.4702 51.8185C31.834 51.8402 31.2015 51.9358 30.5764 52.0495C29.3408 52.2787 28.1291 52.6034 26.9174 52.9282C25.6358 53.2729 24.3524 53.6175 23.0414 53.8286C22.5082 53.9134 21.9732 53.9856 21.4308 53.9802C21.3186 53.9802 21.2083 53.9946 21.0961 53.9928C20.9527 53.9856 20.8111 54.0091 20.6695 53.9784L20.664 53.973Z" fill="url(#paint0_linear_9_152)"/>
    <path fill-rule="evenodd" clip-rule="evenodd" d="M45.1553 0.0252615C46.9425 0.236375 48.3068 1.12774 49.3493 2.53156C50.0646 3.49511 50.5132 4.57594 50.7927 5.73075C51.0299 6.72496 51.12 7.73542 51.0869 8.75851C51.0244 10.6369 50.5757 12.4196 49.7447 14.1121C49.1692 15.285 48.4263 16.3424 47.4794 17.2536C46.6354 18.0638 45.6812 18.7115 44.5688 19.1157C43.7873 19.399 42.982 19.5397 42.1491 19.491C40.7057 19.4098 39.4811 18.8469 38.4515 17.8635C37.5744 17.0244 36.9768 16.0104 36.5613 14.888C36.2726 14.1031 36.0906 13.2929 35.9968 12.4665C35.9306 11.9 35.9049 11.3316 35.9233 10.7632C35.9655 9.42253 36.2119 8.11795 36.6551 6.84947C37.1258 5.49978 37.795 4.25656 38.707 3.14505C39.4738 2.20857 40.371 1.41825 41.4467 0.833629C42.2373 0.404184 43.0794 0.126307 43.9804 0.0252615C44.008 0.0108263 44.0374 0.0162395 44.065 0.0144351H44.1495C44.19 0.00902195 44.2341 0.0288703 44.2709 0H44.8556C44.8942 0.0288703 44.9365 0.00902195 44.977 0.0144351H45.0634C45.0909 0.0144351 45.1222 0.00721756 45.1498 0.0234571L45.1553 0.0252615Z" fill="url(#paint1_linear_9_152)"/>
    <path fill-rule="evenodd" clip-rule="evenodd" d="M4.05884 20.7289C4.08642 20.193 4.18571 19.6679 4.32729 19.1519C4.60493 18.1468 5.05908 17.232 5.76514 16.4489C6.55577 15.5738 7.53395 15.009 8.70336 14.7798C9.65396 14.5958 10.5917 14.6752 11.5147 14.953C12.5756 15.2742 13.5115 15.821 14.3463 16.5319C15.6407 17.6326 16.5693 18.9877 17.211 20.5376C17.5474 21.3496 17.7791 22.1905 17.9078 23.0566C17.9703 23.477 17.9998 23.901 18.0089 24.325C18.0237 25.1316 17.9409 25.9273 17.7368 26.7086C17.4647 27.7516 17.0069 28.6989 16.2769 29.5109C15.4385 30.4419 14.3941 31.0229 13.1419 31.2214C12.2226 31.3676 11.3198 31.2683 10.4354 30.9887C9.24761 30.6097 8.22714 29.9602 7.32986 29.1175C6.45465 28.2983 5.75962 27.3474 5.21721 26.29C4.68583 25.2525 4.31993 24.159 4.14342 23.0078C4.11216 22.8039 4.08826 22.6001 4.05884 22.398C4.03677 22.3059 4.04597 22.2103 4.02206 22.1183C4.01103 22.0804 4.01655 22.0425 4.01471 22.0028C4.00735 21.9541 4.02942 21.9018 4 21.853V21.1078C4.04781 21.0393 4.0239 20.9635 4.02942 20.8913C4.0331 20.8372 4.02023 20.7794 4.05332 20.7289H4.05884Z" fill="url(#paint2_linear_9_152)"/>
    <path fill-rule="evenodd" clip-rule="evenodd" d="M16.6042 8.76578C16.6097 7.28437 16.8248 5.94912 17.3286 4.6644C17.7093 3.69363 18.2314 2.80407 18.9596 2.03901C19.7428 1.2126 20.6751 0.620757 21.7985 0.342881C22.9219 0.0632006 24.0251 0.142594 25.1118 0.528733C26.0679 0.869763 26.9027 1.40567 27.6418 2.08231C28.8241 3.16134 29.6717 4.46591 30.2748 5.92567C30.6573 6.85493 30.922 7.81486 31.0728 8.80547C31.1574 9.36664 31.207 9.93322 31.2199 10.5034C31.2328 11.2197 31.1868 11.9343 31.0655 12.6434C30.8154 14.123 30.3042 15.4998 29.3923 16.7195C28.8241 17.4756 28.1364 18.0999 27.2906 18.551C26.3456 19.0526 25.3343 19.2637 24.2642 19.1825C23.297 19.1103 22.4053 18.8 21.5723 18.3164C20.4875 17.6849 19.6086 16.835 18.8768 15.8336C18.009 14.6445 17.4132 13.3309 17.0363 11.918C16.8304 11.1458 16.698 10.3591 16.6373 9.56332C16.6134 9.26379 16.5932 8.96426 16.6024 8.76939L16.6042 8.76578Z" fill="url(#paint3_linear_9_152)"/>
    <path fill-rule="evenodd" clip-rule="evenodd" d="M64.0055 21.5968V21.7682C63.9393 23.1955 63.5495 24.5397 62.9207 25.8209C62.4261 26.8259 61.7954 27.7407 61.014 28.5509C60.0119 29.5938 58.848 30.4076 57.4653 30.8948C56.6361 31.1871 55.7829 31.3315 54.9004 31.2828C53.5986 31.2106 52.4623 30.7468 51.5061 29.8753C50.7174 29.1554 50.197 28.2694 49.8679 27.2716C49.5718 26.3784 49.4523 25.4564 49.4836 24.5181C49.5479 22.4557 50.2136 20.5809 51.3646 18.8649C51.7525 18.2839 52.1993 17.748 52.6995 17.2572C53.7273 16.2522 54.904 15.4781 56.2978 15.0396C57.0902 14.7924 57.8993 14.6787 58.7285 14.7419C59.9954 14.8375 61.1004 15.3085 62.0271 16.1656C62.8637 16.9397 63.3896 17.896 63.7095 18.9678C63.886 19.5614 63.989 20.1677 64.0092 20.7848V20.958C64.0019 21.1691 64.0037 21.3803 64.0092 21.5914L64.0055 21.5968Z" fill="url(#paint4_linear_9_152)"/>
    <path d="M28.8725 34.54V30.38H35.6525V45H30.9925V34.54H28.8725Z" fill="white"/>
  </g>
  <defs>
    <filter id="filter0_d_9_152" x="0" y="0" width="68.0092" height="62.0054" filterUnits="userSpaceOnUse" color-interpolation-filters="sRGB">
      <feFlood flood-opacity="0" result="BackgroundImageFix"/>
      <feColorMatrix in="SourceAlpha" type="matrix" values="0 0 0 0 0 0 0 0 0 0 0 0 0 0 0 0 0 0 127 0" result="hardAlpha"/>
      <feOffset dy="4"/>
      <feGaussianBlur stdDeviation="2"/>
      <feComposite in2="hardAlpha" operator="out"/>
      <feColorMatrix type="matrix" values="0 0 0 0 0 0 0 0 0 0 0 0 0 0 0 0 0 0 0.25 0"/>
      <feBlend mode="normal" in2="BackgroundImageFix" result="effect1_dropShadow_9_152"/>
      <feBlend mode="normal" in="SourceGraphic" in2="effect1_dropShadow_9_152" result="shape"/>
    </filter>
    <linearGradient id="paint0_linear_9_152" x1="41.5055" y1="16.5018" x2="33.4816" y2="54.0055" gradientUnits="userSpaceOnUse">
      <stop stop-color="#FFE5B1"/>
      <stop offset="1" stop-color="#D2BF9B"/>
    </linearGradient>
    <linearGradient id="paint1_linear_9_152" x1="43.5055" y1="0" x2="43.5055" y2="19.5005" gradientUnits="userSpaceOnUse">
      <stop stop-color="#F3CD82"/>
      <stop offset="1" stop-color="#F5F5F5"/>
    </linearGradient>
    <linearGradient id="paint2_linear_9_152" x1="11.0053" y1="14.6804" x2="11.0053" y2="31.2885" gradientUnits="userSpaceOnUse">
      <stop stop-color="#EBCF97"/>
      <stop offset="1" stop-color="#F5F5F5"/>
    </linearGradient>
    <linearGradient id="paint3_linear_9_152" x1="23.9111" y1="0.17627" x2="23.9111" y2="19.1994" gradientUnits="userSpaceOnUse">
      <stop stop-color="#F3CD82"/>
      <stop offset="1" stop-color="#F5F5F5"/>
    </linearGradient>
    <linearGradient id="paint4_linear_9_152" x1="56.744" y1="14.7247" x2="56.744" y2="31.2921" gradientUnits="userSpaceOnUse">
      <stop stop-color="#F3CD82"/>
      <stop offset="1" stop-color="#F5F5F5"/>
    </linearGradient>
  </defs>
</svg>
