<?xml version="1.0" encoding="utf-8"?>
<!-- Generator: Adobe Illustrator 28.3.0, SVG Export Plug-In . SVG Version: 6.00 Build 0)  -->
<svg version="1.1" id="Calque_1" xmlns="http://www.w3.org/2000/svg" xmlns:xlink="http://www.w3.org/1999/xlink" x="0px" y="0px"
	 viewBox="0 0 500 367" style="enable-background:new 0 0 500 367;" xml:space="preserve">
<style type="text/css">
	
		.st0{fill:none;stroke:#FFFFFF;stroke-width:4.2797;stroke-linecap:round;stroke-linejoin:round;stroke-miterlimit:10;stroke-dasharray:17.1188;}
	.st1{fill:#FFFFFF;}
</style>
<path id="Cat" class="st0" d="M494.15,285.92c-1.48-1.97-3.64-3.25-6-3.55l-72.44-10.24c0.1-1.38,0.1-2.96,0.1-4.73v-1.18
	c0-1.58-0.1-3.35-0.19-5.22l64.96-9.95c2.47-0.4,4.53-1.67,6.01-3.65c1.48-1.97,2.07-4.33,1.67-6.8c-0.78-4.92-5.41-8.37-10.43-7.58
	l-63.58,9.65c-6.69-67.66-33.86-213.31-69.68-238.91c-1.97-1.38-60.82,55.25-70.77,80.17c-7.38-1.77-15.36-2.76-23.82-2.76
	s-16.54,0.99-23.82,2.76c-9.94-24.92-68.9-81.55-70.77-80.17c-35.83,25.61-62.99,171.26-69.68,238.92l-63.58-9.65
	c-5.02-0.79-9.65,2.66-10.43,7.58c-0.4,2.36,0.19,4.83,1.67,6.8c1.48,1.97,3.54,3.25,6.01,3.65l64.96,9.95
	c-0.1,1.87-0.1,3.65-0.19,5.22v1.18c0,1.77,0,3.35,0.1,4.73l-72.44,10.24c-2.46,0.3-4.53,1.58-6.01,3.55
	c-1.48,1.97-2.07,4.33-1.77,6.8c0.3,2.36,1.58,4.53,3.54,6.01c1.58,1.18,3.54,1.87,5.51,1.87c0.4,0,0.89,0,1.28-0.1l76.77-10.93
	c1.77,2.56,3.94,5.22,6.3,7.88l-66.93,31.02c-2.26,0.99-3.94,2.85-4.73,5.12c-0.89,2.26-0.69,4.73,0.3,6.99
	c1.48,3.25,4.83,5.32,8.36,5.32c0.4,0,0.89,0,1.28-0.1c0.89-0.1,1.77-0.4,2.56-0.79l73.42-33.98c31.5,26.49,85.73,52.59,138.39,52.2
	c52.76,0.4,106.89-25.7,138.39-52.2l73.42,33.98c0.78,0.4,1.67,0.59,2.55,0.79c0.4,0.1,0.89,0.1,1.28,0.1
	c3.54,0,6.79-2.07,8.36-5.22c0.98-2.17,1.18-4.73,0.3-6.99c-0.89-2.26-2.56-4.14-4.72-5.12l-67.03-31.02
	c2.36-2.66,4.53-5.32,6.3-7.88l76.77,10.93c0.4,0.1,0.89,0.1,1.28,0.1c1.96,0,3.84-0.59,5.51-1.87c1.97-1.48,3.25-3.55,3.54-6.01
	c0.3-2.56-0.39-4.92-1.87-6.89L494.15,285.92z"/>
<path id="_x34__00000097490967944057547500000006129395474849122743_" class="st1" d="M158.69,246.77v-17.11l27.55-39.3h22.1v38.65
	H215v17.75h-6.66v10.17h-20.71v-10.17H158.69z M189.3,213.76l-9.99,15.26h9.99V213.76z"/>
<path id="_x30_" class="st1" d="M228.73,197.02c4.53-6.1,11.51-9.15,20.94-9.15c9.37,0,16.33,3.07,20.9,9.2
	c4.56,6.13,6.84,14.5,6.84,25.1c0,10.67-2.28,19.06-6.84,25.2c-4.56,6.13-11.53,9.2-20.9,9.2c-9.43,0-16.41-3.07-20.94-9.2
	c-4.53-6.13-6.8-14.53-6.8-25.2C221.94,211.51,224.2,203.12,228.73,197.02z M255.69,211.03c-0.99-2.5-2.99-3.75-6.01-3.75
	c-3.08,0-5.12,1.25-6.1,3.75c-0.99,2.5-1.48,6.21-1.48,11.14c0,4.99,0.49,8.74,1.48,11.23c0.99,2.5,3.02,3.74,6.1,3.74
	c3.02,0,5.02-1.25,6.01-3.74c0.99-2.5,1.48-6.24,1.48-11.23C257.17,217.24,256.67,213.53,255.69,211.03z"/>
<path id="_x34_" class="st1" d="M285,246.77v-17.11l27.55-39.3h22.1v38.65h6.66v17.75h-6.66v10.17h-20.71v-10.17H285z M315.6,213.76
	l-9.99,15.26h9.99V213.76z"/>
</svg>
