<svg width="66" height="94" viewBox="0 0 66 94" fill="none" xmlns="http://www.w3.org/2000/svg">
  <g clip-path="url(#clip0_19_56)">
    <path fill-rule="evenodd" clip-rule="evenodd" d="M11.4924 93.0339C11.3292 93.0229 11.1652 93.0133 11.002 92.9989C10.0865 92.9131 9.247 92.6144 8.5022 92.0739C7.21628 91.1414 6.39398 89.9019 6.06616 88.3417C5.94408 87.7553 5.90979 87.164 5.94682 86.5666C5.98935 85.8661 6.12857 85.1863 6.35077 84.5216C6.70603 83.4606 7.24166 82.4979 7.91925 81.6106C8.43019 80.9418 9.00834 80.3361 9.64547 79.7868C10.2421 79.2724 10.7832 78.7038 11.2908 78.1023C11.9293 77.3442 12.5067 76.54 13.0766 75.7304C13.5807 75.0149 14.0766 74.2945 14.6115 73.603C15.0141 73.0811 15.4386 72.5785 15.9111 72.1197C16.503 71.5463 17.1559 71.0602 17.9254 70.745C18.5029 70.508 19.103 70.3831 19.7271 70.37C20.4328 70.3535 21.1303 70.4236 21.8161 70.5918C22.8668 70.85 23.7768 71.3616 24.5601 72.106C25.0964 72.6176 25.5497 73.1958 25.9715 73.8015C26.4186 74.4435 26.8294 75.109 27.254 75.7675C27.732 76.5084 28.2251 77.2377 28.7765 77.9272C29.3258 78.6146 29.9314 79.2484 30.5932 79.8287C31.3936 80.5305 32.1034 81.3112 32.7083 82.1882C33.224 82.9401 33.6445 83.7401 33.938 84.6047C34.1664 85.2776 34.3104 85.9664 34.3467 86.6778C34.403 87.7587 34.2164 88.7915 33.7268 89.7639C33.2734 90.6648 32.6171 91.3879 31.7934 91.9627C31.1878 92.385 30.5343 92.7057 29.8141 92.8842C29.5597 92.9481 29.3005 92.9941 29.0392 93.0195C29.0028 93.0229 28.9678 93.0298 28.9322 93.0353C28.8979 93.0545 28.8602 93.0401 28.8245 93.0449C28.795 93.049 28.7635 93.0353 28.7347 93.0545H28.0639C28.0372 93.0353 28.007 93.0483 27.9789 93.0449H27.8376C27.2656 93.0264 26.7101 92.9069 26.1566 92.7785C25.2184 92.5594 24.2994 92.2717 23.366 92.0334C22.6103 91.8411 21.8483 91.6852 21.0726 91.5967C20.535 91.5349 19.9966 91.528 19.4589 91.5465C19.0289 91.5609 18.6023 91.6269 18.1798 91.7058C17.3452 91.8631 16.5277 92.0876 15.7095 92.3115C14.844 92.5491 13.9785 92.786 13.0924 92.9309C12.7317 92.9893 12.3709 93.0387 12.0047 93.0353C11.9293 93.0346 11.8545 93.0456 11.7791 93.0435C11.6824 93.038 11.587 93.0552 11.4917 93.0332L11.4924 93.0339Z" fill="white"/>
    <path fill-rule="evenodd" clip-rule="evenodd" d="M28.0269 55.8745C29.2333 56.0194 30.1543 56.6333 30.858 57.6015C31.3401 58.2656 31.6439 59.01 31.8319 59.8058C31.9923 60.4912 32.0534 61.1868 32.0301 61.8907C31.9875 63.1837 31.6844 64.4122 31.1234 65.5776C30.7352 66.3851 30.2339 67.1137 29.5947 67.7414C29.0255 68.2997 28.3815 68.746 27.6298 69.0241C27.1017 69.2192 26.5592 69.316 25.9962 69.2823C25.0223 69.226 24.1952 68.8387 23.5005 68.1616C22.9079 67.5841 22.5047 66.8851 22.2248 66.1118C22.0294 65.5707 21.9073 65.0138 21.8442 64.4438C21.8003 64.0531 21.7825 63.6617 21.7948 63.2709C21.8236 62.3473 21.9889 61.4484 22.2893 60.5756C22.6075 59.6465 23.0588 58.7895 23.674 58.0239C24.1918 57.3797 24.7974 56.8345 25.5237 56.4321C26.0572 56.1361 26.6258 55.9445 27.2341 55.8759C27.2526 55.8656 27.2725 55.8697 27.2917 55.869H27.3493C27.3774 55.8656 27.4069 55.8786 27.4316 55.8594H27.8267C27.852 55.88 27.8808 55.8662 27.9089 55.869H27.9672C27.9858 55.869 28.0063 55.8642 28.0255 55.8752L28.0269 55.8745Z" fill="white"/>
    <path fill-rule="evenodd" clip-rule="evenodd" d="M0.283311 70.1351C0.302514 69.7664 0.368353 69.4045 0.465054 69.0488C0.652284 68.3573 0.958847 67.7269 1.43618 67.1864C1.96975 66.5842 2.62951 66.1941 3.42026 66.0369C4.06219 65.9099 4.69521 65.9641 5.31794 66.1564C6.03325 66.3775 6.66626 66.7538 7.22864 67.2441C8.10237 68.0022 8.72922 68.9362 9.16334 70.004C9.39035 70.5629 9.5474 71.1425 9.63382 71.7393C9.67634 72.0291 9.69623 72.3209 9.7024 72.6134C9.71269 73.1697 9.65713 73.717 9.51928 74.2547C9.33548 74.9723 9.02618 75.626 8.53376 76.185C7.96795 76.8264 7.26293 77.226 6.41731 77.3634C5.79733 77.4643 5.18694 77.3963 4.59028 77.2034C3.78786 76.9424 3.09998 76.4947 2.4944 75.9144C1.90322 75.35 1.43412 74.6948 1.06789 73.9662C0.709207 73.2514 0.461625 72.4981 0.342292 71.7056C0.321717 71.5655 0.304572 71.4254 0.285369 71.2854C0.270281 71.2215 0.276453 71.1563 0.261365 71.0924C0.254507 71.0656 0.257936 71.0409 0.256564 71.0134C0.251763 70.9798 0.266852 70.9434 0.246277 70.9097L0.246277 70.3961C0.278511 70.3494 0.262737 70.2972 0.266166 70.2471C0.268909 70.21 0.259307 70.1702 0.282625 70.1351H0.283311Z" fill="white"/>
    <path fill-rule="evenodd" clip-rule="evenodd" d="M8.75181 61.8941C8.75592 60.8743 8.90063 59.9549 9.24148 59.0697C9.49867 58.4002 9.85118 57.7883 10.3429 57.2616C10.8724 56.693 11.5013 56.2851 12.2591 56.0928C13.0176 55.8999 13.7631 55.9548 14.4956 56.2206C15.1409 56.4547 15.704 56.8242 16.204 57.2911C17.0023 58.0348 17.5742 58.9324 17.9816 59.9384C18.2402 60.5784 18.4185 61.2397 18.5207 61.9216C18.5783 62.3082 18.6119 62.6982 18.6194 63.0903C18.6277 63.5841 18.5968 64.0764 18.5152 64.564C18.3458 65.5831 18.0008 66.5321 17.3849 67.3712C17.0023 67.8918 16.5373 68.3223 15.966 68.632C15.3282 68.9781 14.6458 69.123 13.9229 69.0667C13.27 69.0166 12.6679 68.803 12.1062 68.4693C11.3737 68.0346 10.7805 67.4488 10.2867 66.7594C9.70099 65.9408 9.29909 65.0351 9.04397 64.062C8.90475 63.5298 8.81559 62.9887 8.77513 62.4393C8.75867 62.2333 8.74495 62.0259 8.75181 61.8927V61.8941Z" fill="white"/>
    <path fill-rule="evenodd" clip-rule="evenodd" d="M40.7523 70.7326V70.8514C40.707 71.8348 40.4444 72.7605 40.0198 73.6429C39.6858 74.3344 39.26 74.9648 38.7319 75.5238C38.055 76.242 37.2697 76.8024 36.3356 77.1382C35.776 77.3394 35.1999 77.439 34.6046 77.406C33.7254 77.3566 32.9579 77.0372 32.3126 76.4371C31.7797 75.9406 31.4279 75.3308 31.207 74.6441C31.0074 74.0288 30.9272 73.3943 30.9471 72.7474C30.991 71.3266 31.4395 70.0349 32.2166 68.8531C32.4792 68.4528 32.7803 68.0833 33.1177 67.7455C33.8125 67.0526 34.606 66.5204 35.5462 66.2183C36.0812 66.048 36.6271 65.9697 37.1874 66.0136C38.0426 66.0795 38.7881 66.4037 39.4136 66.9949C39.978 67.5278 40.334 68.1863 40.5493 68.9252C40.6679 69.3338 40.7372 69.7513 40.7516 70.1771V70.2966C40.7468 70.4415 40.7475 70.5871 40.7516 70.7326H40.7523Z" fill="white"/>
    <path fill-rule="evenodd" clip-rule="evenodd" d="M42.6891 60.4259C42.5615 60.417 42.434 60.4101 42.3071 60.3985C41.5939 60.3312 40.9403 60.0984 40.3594 59.6774C39.3574 58.9509 38.7168 57.9854 38.4617 56.7699C38.3664 56.3133 38.3396 55.8525 38.3691 55.3869C38.402 54.841 38.5111 54.3115 38.6839 53.7938C38.9603 52.9677 39.378 52.2178 39.906 51.5263C40.3038 51.0051 40.7544 50.5333 41.2509 50.1055C41.7152 49.7045 42.137 49.2622 42.5327 48.7932C43.03 48.2026 43.4799 47.5764 43.9243 46.9453C44.3173 46.3877 44.7027 45.8267 45.1197 45.2883C45.4331 44.8818 45.7637 44.4903 46.1319 44.1326C46.5928 43.6855 47.1017 43.3071 47.7011 43.062C48.151 42.878 48.618 42.7798 49.1043 42.7701C49.6543 42.7578 50.1968 42.812 50.7318 42.9432C51.5499 43.1444 52.2591 43.5427 52.8695 44.1229C53.2871 44.5212 53.6403 44.9724 53.9688 45.4442C54.3172 45.9441 54.6375 46.4632 54.9674 46.9755C55.3398 47.5523 55.7239 48.1209 56.1532 48.6579C56.5811 49.1936 57.053 49.6873 57.568 50.1391C58.1914 50.6858 58.7449 51.2942 59.2161 51.9774C59.618 52.5632 59.9451 53.1867 60.1742 53.8597C60.3525 54.3843 60.4643 54.9206 60.4924 55.4748C60.5363 56.3167 60.3909 57.1215 60.0096 57.879C59.6564 58.5808 59.1454 59.1439 58.5035 59.5916C58.0316 59.9205 57.5228 60.1705 56.9618 60.3092C56.7636 60.3593 56.5619 60.395 56.3582 60.4143C56.3301 60.417 56.3027 60.4225 56.2753 60.4266C56.2485 60.4417 56.219 60.4307 56.1909 60.4342C56.1676 60.4376 56.1429 60.4266 56.1209 60.4417H55.5984C55.5778 60.4266 55.5545 60.4369 55.5318 60.4342H55.4214C54.9756 60.4198 54.5429 60.327 54.1122 60.2268C53.3818 60.0565 52.6651 59.8319 51.9381 59.6465C51.3497 59.4968 50.7558 59.3753 50.1515 59.3066C49.7332 59.2585 49.3135 59.253 48.8944 59.2675C48.5598 59.2785 48.2271 59.3306 47.8979 59.3918C47.2478 59.514 46.6106 59.6898 45.9735 59.8635C45.2994 60.0489 44.6252 60.233 43.9346 60.3463C43.6541 60.3916 43.3729 60.4307 43.0869 60.428C43.0286 60.4273 42.9703 60.4362 42.9106 60.4349C42.8352 60.4307 42.7611 60.4438 42.6864 60.4266L42.6891 60.4259Z" fill="white"/>
    <path fill-rule="evenodd" clip-rule="evenodd" d="M55.5695 31.4786C56.5091 31.5919 57.2272 32.0699 57.7751 32.8239C58.151 33.341 58.3876 33.9212 58.5337 34.5406C58.6592 35.0749 58.7065 35.6167 58.688 36.1647C58.6551 37.1721 58.4184 38.1293 57.9816 39.0371C57.6791 39.6662 57.2882 40.2334 56.7903 40.723C56.3466 41.1577 55.8452 41.5058 55.2595 41.7222C54.8481 41.8739 54.4256 41.9495 53.9873 41.9234C53.2288 41.8794 52.5848 41.5773 52.043 41.0506C51.5815 40.6008 51.2674 40.0562 51.0493 39.454C50.897 39.033 50.8024 38.5983 50.753 38.1541C50.7187 37.8498 50.705 37.5449 50.7146 37.2401C50.7372 36.5211 50.8662 35.8206 51.0993 35.1401C51.3469 34.4163 51.6988 33.7489 52.1781 33.1521C52.5814 32.6501 53.0533 32.2258 53.6191 31.9119C54.0347 31.6812 54.4777 31.5322 54.9516 31.4786C54.966 31.4704 54.9818 31.4738 54.9962 31.4731H55.0408C55.0627 31.4704 55.0853 31.4807 55.1052 31.4656H55.4132C55.4331 31.4814 55.4557 31.4711 55.4776 31.4731H55.5229C55.5373 31.4731 55.5531 31.4697 55.5682 31.4779L55.5695 31.4786Z" fill="white"/>
    <path fill-rule="evenodd" clip-rule="evenodd" d="M33.9572 42.5881C33.9716 42.301 34.0237 42.0188 34.0992 41.7414C34.2453 41.2023 34.4839 40.7113 34.8556 40.2911C35.2712 39.8214 35.7856 39.5178 36.4008 39.3956C36.9008 39.2967 37.3939 39.3393 37.8787 39.4883C38.4363 39.6607 38.9294 39.9539 39.3677 40.3357C40.0487 40.9263 40.5363 41.6535 40.8744 42.4858C41.0514 42.9211 41.1734 43.3723 41.2413 43.8379C41.2743 44.0638 41.29 44.2904 41.2948 44.5191C41.3031 44.9524 41.2592 45.3782 41.1522 45.7977C41.0088 46.3567 40.7681 46.8662 40.3841 47.3016C39.9431 47.8015 39.3937 48.1126 38.7353 48.2197C38.2525 48.2987 37.7772 48.2451 37.3123 48.0954C36.6868 47.8922 36.1512 47.5433 35.6793 47.0915C35.2191 46.652 34.8536 46.1418 34.5683 45.5739C34.2891 45.0169 34.0957 44.4298 34.0032 43.8125C33.9867 43.7033 33.9737 43.5941 33.9593 43.4856C33.9476 43.4355 33.9524 43.3847 33.9401 43.3352C33.9346 43.3146 33.9373 43.2947 33.9366 43.2734C33.9325 43.2473 33.9449 43.2192 33.9284 43.1924V42.792C33.9531 42.7556 33.9408 42.7151 33.9435 42.676C33.9456 42.6471 33.938 42.6162 33.9565 42.5888L33.9572 42.5881Z" fill="white"/>
    <path fill-rule="evenodd" clip-rule="evenodd" d="M40.5541 36.1682C40.5576 35.3737 40.67 34.6575 40.9355 33.968C41.1357 33.4468 41.4107 32.9702 41.7934 32.5596C42.2056 32.1167 42.6953 31.7987 43.2865 31.649C43.8769 31.4986 44.4578 31.5419 45.0284 31.7486C45.5311 31.9313 45.9701 32.219 46.3596 32.5822C46.9817 33.1618 47.4268 33.8609 47.7443 34.6444C47.9459 35.143 48.0845 35.658 48.164 36.1895C48.2086 36.491 48.2347 36.7945 48.2408 37.1001C48.2477 37.4846 48.223 37.8685 48.1599 38.2482C48.0282 39.042 47.7594 39.7809 47.2793 40.4347C46.981 40.8398 46.6189 41.1756 46.1744 41.4167C45.6779 41.6865 45.1457 41.7992 44.5833 41.7552C44.0745 41.7161 43.6054 41.5499 43.1678 41.2903C42.5972 40.9518 42.135 40.4958 41.7502 39.9581C41.2941 39.3202 40.9807 38.6149 40.7825 37.8568C40.6742 37.442 40.6042 37.0204 40.5726 36.5933C40.5603 36.4326 40.5493 36.2712 40.5541 36.1675V36.1682Z" fill="white"/>
    <path fill-rule="evenodd" clip-rule="evenodd" d="M65.4824 43.0537V43.1457C65.4474 43.9114 65.2424 44.6331 64.9118 45.3205C64.6519 45.8596 64.3199 46.3506 63.9084 46.786C63.381 47.3456 62.7693 47.7817 62.0416 48.044C61.6061 48.2012 61.1569 48.2782 60.6933 48.2527C60.0088 48.2143 59.4108 47.9657 58.9081 47.4981C58.4932 47.1115 58.2189 46.6363 58.0467 46.1013C57.8917 45.622 57.8286 45.1276 57.8444 44.6242C57.8787 43.5173 58.2278 42.5112 58.8333 41.5904C59.0377 41.2786 59.2723 40.9909 59.5349 40.7272C60.0761 40.1874 60.6947 39.7727 61.4271 39.5371C61.8434 39.4046 62.2693 39.3435 62.7055 39.3778C63.3714 39.4293 63.9523 39.682 64.4399 40.1421C64.8796 40.5576 65.1566 41.0705 65.3247 41.646C65.4172 41.9639 65.4714 42.2894 65.4824 42.6211V42.7138C65.479 42.8271 65.479 42.9397 65.4824 43.053V43.0537Z" fill="white"/>
    <path fill-rule="evenodd" clip-rule="evenodd" d="M21.4073 32.8664C21.3168 32.8603 21.2263 32.8555 21.1364 32.8472C20.6303 32.7998 20.1667 32.6343 19.7552 32.3363C19.0447 31.8213 18.5907 31.136 18.4096 30.2741C18.3417 29.95 18.3232 29.6232 18.3438 29.2935C18.3671 28.9062 18.4439 28.5306 18.5673 28.1639C18.7635 27.5775 19.0598 27.046 19.4342 26.5557C19.7168 26.1862 20.0357 25.8518 20.3882 25.5483C20.7174 25.264 21.0171 24.9502 21.2969 24.6178C21.6494 24.1989 21.9683 23.7546 22.2838 23.3076C22.5623 22.912 22.8359 22.5144 23.1315 22.1319C23.3537 21.8435 23.5882 21.5661 23.8495 21.312C24.1767 20.9947 24.5374 20.7269 24.9626 20.5525C25.2815 20.422 25.6135 20.3527 25.9578 20.3451C26.348 20.3362 26.7327 20.3747 27.112 20.4674C27.6922 20.6102 28.1949 20.8924 28.6284 21.3038C28.9246 21.5867 29.175 21.906 29.4081 22.2404C29.655 22.5955 29.882 22.9628 30.1166 23.3268C30.3806 23.7361 30.6529 24.1392 30.9581 24.5203C31.2612 24.9 31.5959 25.2502 31.9615 25.5709C32.4038 25.9589 32.7961 26.3902 33.1301 26.875C33.4154 27.2904 33.6472 27.7327 33.8097 28.2099C33.9359 28.5821 34.0155 28.9625 34.0354 29.3553C34.0662 29.9521 33.9634 30.5234 33.6932 31.0604C33.4428 31.5583 33.08 31.9579 32.6246 32.2752C32.29 32.5087 31.9285 32.6858 31.5314 32.784C31.3908 32.8191 31.2475 32.8445 31.1035 32.8589C31.0836 32.861 31.0637 32.8644 31.0445 32.8678C31.0253 32.8788 31.0047 32.8706 30.9848 32.8733C30.9684 32.8754 30.9512 32.8678 30.9355 32.8788H30.5651C30.5507 32.8678 30.5336 32.8754 30.5178 32.8733H30.4396C30.1234 32.863 29.8169 32.7971 29.511 32.7264C28.9925 32.6055 28.485 32.4462 27.9693 32.315C27.5516 32.2093 27.1305 32.1228 26.7026 32.074C26.4056 32.0397 26.108 32.0362 25.811 32.0465C25.5737 32.0548 25.3378 32.0912 25.1046 32.1344C24.6437 32.2216 24.1918 32.3452 23.7398 32.4688C23.2618 32.6 22.7831 32.7312 22.2941 32.8115C22.0952 32.8438 21.8956 32.8713 21.6933 32.8692C21.6515 32.8692 21.6103 32.8747 21.5685 32.874C21.515 32.8713 21.4622 32.8802 21.4094 32.8685L21.4073 32.8664Z" fill="white"/>
    <path fill-rule="evenodd" clip-rule="evenodd" d="M30.5425 12.3354C31.2091 12.4158 31.718 12.755 32.1068 13.2892C32.3736 13.6559 32.541 14.0673 32.6452 14.5068C32.7337 14.8851 32.7673 15.2697 32.7549 15.6591C32.7316 16.3739 32.5643 17.0524 32.2543 17.6965C32.0396 18.1429 31.7626 18.5453 31.4094 18.892C31.0946 19.2004 30.7386 19.4469 30.3237 19.6007C30.0322 19.7085 29.7318 19.7621 29.4212 19.7436C28.8828 19.7127 28.426 19.4984 28.042 19.1242C27.7148 18.8048 27.4919 18.4189 27.3369 17.9918C27.2293 17.6931 27.1614 17.3847 27.1264 17.0702C27.1017 16.8546 27.0921 16.6383 27.099 16.422C27.1147 15.9118 27.2066 15.4153 27.3719 14.9325C27.5475 14.4189 27.7971 13.9457 28.1373 13.5227C28.4233 13.1663 28.758 12.8656 29.1592 12.6431C29.4541 12.4796 29.7682 12.3739 30.1042 12.3354C30.1145 12.3299 30.1255 12.332 30.1358 12.3313H30.1673C30.1824 12.3292 30.1989 12.3368 30.2126 12.3258H30.4307C30.4451 12.3368 30.4609 12.3292 30.4759 12.3313H30.5082C30.5185 12.3313 30.5301 12.3286 30.5404 12.3347L30.5425 12.3354Z" fill="white"/>
    <path fill-rule="evenodd" clip-rule="evenodd" d="M15.2137 20.2147C15.2239 20.0108 15.261 19.8109 15.3138 19.6146C15.4173 19.2321 15.5867 18.8839 15.8501 18.5859C16.145 18.2528 16.5099 18.0379 16.946 17.9507C17.3006 17.8806 17.6504 17.9108 17.9947 18.0166C18.3904 18.1388 18.7395 18.3469 19.0508 18.6175C19.5337 19.0363 19.88 19.5521 20.1193 20.1419C20.2449 20.451 20.3313 20.771 20.3793 21.1006C20.4026 21.2606 20.4136 21.4219 20.417 21.5833C20.4225 21.8903 20.3916 22.1931 20.3155 22.4905C20.214 22.8874 20.0432 23.2479 19.7709 23.5569C19.4582 23.9112 19.0687 24.1324 18.6016 24.2079C18.2587 24.2635 17.922 24.2258 17.5921 24.1193C17.149 23.9751 16.7684 23.7279 16.4337 23.4072C16.1073 23.0954 15.848 22.7335 15.6457 22.3311C15.4475 21.9363 15.311 21.5201 15.2452 21.082C15.2335 21.0044 15.2246 20.9268 15.2137 20.8499C15.2054 20.8149 15.2089 20.7785 15.1999 20.7435C15.1958 20.7291 15.1979 20.7146 15.1972 20.6995C15.1945 20.681 15.2027 20.6611 15.1917 20.6425V20.3589C15.2095 20.3328 15.2006 20.304 15.2027 20.2765C15.2041 20.2559 15.1993 20.234 15.2116 20.2147H15.2137Z" fill="white"/>
    <path fill-rule="evenodd" clip-rule="evenodd" d="M19.893 15.6619C19.8951 15.0981 19.9753 14.5899 20.1632 14.101C20.3052 13.7316 20.5 13.393 20.7715 13.1019C21.0637 12.7873 21.4114 12.5621 21.8305 12.4564C22.2495 12.3499 22.661 12.3801 23.0663 12.5271C23.4229 12.6569 23.7343 12.8608 24.01 13.1183C24.451 13.529 24.7672 14.0255 24.9921 14.581C25.1348 14.9347 25.2335 15.3 25.2897 15.677C25.3213 15.8905 25.3398 16.1062 25.3446 16.3232C25.3494 16.5958 25.3323 16.8677 25.287 17.1376C25.1937 17.7007 25.0031 18.2246 24.6629 18.6889C24.451 18.9766 24.1945 19.2142 23.879 19.3859C23.5265 19.5768 23.1493 19.6571 22.7501 19.6262C22.3894 19.5987 22.0568 19.4806 21.7461 19.2966C21.3415 19.0562 21.0136 18.7328 20.7407 18.3517C20.417 17.8991 20.1948 17.3992 20.0542 16.8615C19.9774 16.5676 19.928 16.2682 19.9054 15.9654C19.8964 15.8514 19.8889 15.7374 19.8923 15.6632L19.893 15.6619Z" fill="white"/>
    <path fill-rule="evenodd" clip-rule="evenodd" d="M37.5735 20.545V20.6102C37.5488 21.1534 37.4034 21.665 37.1689 22.1526C36.9844 22.5351 36.7492 22.8832 36.4577 23.1916C36.0839 23.5885 35.6498 23.8982 35.134 24.0836C34.8247 24.1948 34.5065 24.2498 34.1773 24.2312C33.6918 24.2037 33.2679 24.0273 32.9113 23.6956C32.6171 23.4216 32.423 23.0844 32.3002 22.7047C32.1898 22.3648 32.1452 22.0139 32.1569 21.6568C32.1809 20.8719 32.4292 20.1584 32.8585 19.5053C33.0032 19.2842 33.1699 19.0803 33.3564 18.8935C33.7398 18.511 34.1787 18.2164 34.6986 18.0495C34.9941 17.9555 35.2959 17.9122 35.6052 17.9362C36.0777 17.9726 36.4899 18.1518 36.8356 18.478C37.1476 18.7726 37.3438 19.1366 37.4631 19.5445C37.5289 19.7704 37.5673 20.0011 37.5749 20.236V20.3019C37.5722 20.3823 37.5728 20.4626 37.5749 20.5429L37.5735 20.545Z" fill="white"/>
    <path fill-rule="evenodd" clip-rule="evenodd" d="M39.9451 12.2393C39.8936 12.2359 39.8422 12.2331 39.7908 12.2283C39.5027 12.2015 39.2387 12.1075 39.0041 11.9372C38.5995 11.6439 38.3409 11.2539 38.2381 10.7629C38.1997 10.5782 38.1887 10.3921 38.2003 10.2046C38.2134 9.98418 38.2573 9.77062 38.3272 9.56117C38.439 9.22744 38.6077 8.9246 38.8203 8.6458C38.9808 8.43567 39.1632 8.24477 39.3635 8.0724C39.5514 7.91034 39.7215 7.7318 39.8813 7.54227C40.0822 7.30399 40.264 7.05059 40.443 6.79651C40.6014 6.57127 40.7571 6.34466 40.9258 6.12698C41.0527 5.96286 41.1857 5.80492 41.3346 5.66002C41.5204 5.47942 41.7262 5.32697 41.9683 5.2274C42.15 5.15324 42.3386 5.11341 42.5347 5.10929C42.757 5.10448 42.9757 5.12645 43.1918 5.17933C43.5223 5.26036 43.8083 5.42174 44.0552 5.6559C44.2239 5.81659 44.3666 5.99857 44.4989 6.18947C44.6395 6.39136 44.7692 6.6008 44.9022 6.8075C45.0524 7.04029 45.2074 7.26965 45.3809 7.48665C45.5537 7.70296 45.7444 7.9021 45.9522 8.08477C46.2039 8.3052 46.4275 8.55104 46.6174 8.82709C46.78 9.064 46.9117 9.31533 47.0043 9.58727C47.0763 9.79877 47.1215 10.0158 47.1325 10.2396C47.1503 10.5796 47.0914 10.9044 46.9377 11.2106C46.7951 11.4942 46.5886 11.7215 46.3294 11.9021C46.1387 12.0347 45.933 12.1356 45.7067 12.1919C45.6264 12.2118 45.5448 12.2263 45.4632 12.2345C45.4515 12.2359 45.4406 12.2379 45.4296 12.2393C45.4186 12.2455 45.407 12.2407 45.3953 12.2421C45.3857 12.2434 45.3761 12.2393 45.3672 12.2448H45.156C45.1477 12.2386 45.1381 12.2427 45.1292 12.2421H45.0846C44.905 12.2366 44.7301 12.1988 44.5559 12.1583C44.261 12.0896 43.9715 11.999 43.678 11.9241C43.44 11.8637 43.2007 11.8149 42.9565 11.7868C42.7878 11.7675 42.6177 11.7655 42.449 11.771C42.3139 11.7758 42.1795 11.7964 42.0464 11.8211C41.7838 11.8706 41.5266 11.9413 41.2694 12.0113C40.9971 12.0862 40.7249 12.1603 40.4464 12.2063C40.3333 12.2249 40.2194 12.2407 40.1042 12.2393C40.0809 12.2393 40.0569 12.2427 40.0329 12.2421C40.0027 12.2407 39.9725 12.2455 39.9423 12.2386L39.9451 12.2393Z" fill="white"/>
    <path fill-rule="evenodd" clip-rule="evenodd" d="M45.1464 0.549607C45.5256 0.594929 45.8157 0.788579 46.0373 1.09279C46.1888 1.30155 46.2842 1.53571 46.3438 1.78636C46.3946 2.00198 46.4138 2.22104 46.4062 2.44216C46.3932 2.84868 46.2972 3.2353 46.1209 3.602C45.9989 3.85608 45.8411 4.08543 45.6402 4.28252C45.4612 4.45831 45.2582 4.5984 45.0222 4.6863C44.8563 4.74742 44.6855 4.77832 44.5086 4.76733C44.202 4.74948 43.9421 4.62793 43.7233 4.41505C43.5368 4.23308 43.4099 4.01333 43.3221 3.77024C43.2604 3.59994 43.222 3.42483 43.2021 3.2456C43.1884 3.12268 43.1829 2.99976 43.1863 2.87684C43.1952 2.58636 43.2473 2.30344 43.342 2.02876C43.4421 1.73623 43.5841 1.46704 43.7775 1.22601C43.9407 1.02343 44.1307 0.851756 44.3591 0.725402C44.5271 0.632011 44.7061 0.572268 44.8974 0.550293C44.9029 0.54686 44.9098 0.548233 44.9153 0.548233H44.9331C44.942 0.54686 44.9509 0.551667 44.9592 0.5448H45.0833C45.0915 0.55098 45.1004 0.54686 45.1093 0.548233H45.1279C45.1333 0.548233 45.1402 0.54686 45.1464 0.550293V0.549607Z" fill="white"/>
    <path fill-rule="evenodd" clip-rule="evenodd" d="M36.4186 5.03586C36.4248 4.91981 36.4453 4.80581 36.4755 4.69388C36.5345 4.4762 36.6305 4.27774 36.7807 4.10812C36.9487 3.91859 37.1559 3.79567 37.4048 3.74623C37.6064 3.7064 37.806 3.72357 38.0015 3.784C38.2264 3.85336 38.4253 3.97216 38.6029 4.12598C38.878 4.36426 39.0748 4.65817 39.2113 4.99397C39.2826 5.16976 39.332 5.35174 39.3594 5.5399C39.3724 5.63123 39.3793 5.72256 39.3807 5.81458C39.3841 5.98969 39.3663 6.16136 39.3231 6.33098C39.2654 6.5569 39.1681 6.76223 39.0131 6.93802C38.8354 7.13991 38.6132 7.26558 38.3471 7.30884C38.1524 7.34043 37.9603 7.31914 37.7724 7.25871C37.52 7.17631 37.3033 7.03553 37.1133 6.85356C36.9275 6.67639 36.78 6.46969 36.6648 6.24102C36.5516 6.01647 36.4741 5.77887 36.4364 5.5296C36.4303 5.48565 36.4248 5.4417 36.4186 5.39775C36.4138 5.37784 36.4159 5.35723 36.4111 5.33732C36.409 5.32908 36.4104 5.32084 36.4097 5.3126C36.4083 5.3023 36.4131 5.29062 36.4062 5.28032V5.11895C36.4165 5.10453 36.4111 5.08805 36.4124 5.07225C36.4131 5.06058 36.4104 5.04822 36.4179 5.03723L36.4186 5.03586Z" fill="white"/>
    <path fill-rule="evenodd" clip-rule="evenodd" d="M39.083 2.44359C39.0844 2.1229 39.1296 1.83311 39.2373 1.555C39.3182 1.34418 39.4293 1.1519 39.5837 0.98641C39.7503 0.807181 39.9478 0.679454 40.1865 0.619024C40.4252 0.558595 40.6597 0.575762 40.8901 0.658853C41.0932 0.73233 41.2701 0.84907 41.4278 0.995337C41.6788 1.2295 41.8585 1.51174 41.9868 1.82831C42.0684 2.02951 42.1239 2.23758 42.1562 2.45252C42.174 2.57406 42.185 2.69698 42.187 2.8199C42.1898 2.9751 42.1802 3.13029 42.1541 3.28343C42.1006 3.60412 41.9923 3.90283 41.7989 4.16653C41.6782 4.32996 41.5321 4.46593 41.3524 4.56344C41.1514 4.67263 40.9368 4.71795 40.7098 4.70009C40.504 4.6843 40.3147 4.617 40.1385 4.51194C39.9081 4.37528 39.7215 4.19125 39.5658 3.97425C39.3813 3.71674 39.2551 3.43176 39.1749 3.12549C39.131 2.95793 39.1029 2.78763 39.0906 2.61527C39.0858 2.55072 39.081 2.48548 39.083 2.44359Z" fill="white"/>
    <path fill-rule="evenodd" clip-rule="evenodd" d="M49.1496 5.22403V5.26111C49.1352 5.57012 49.0529 5.86129 48.9191 6.1394C48.8142 6.35708 48.6798 6.55554 48.5138 6.73134C48.3012 6.95726 48.0536 7.13374 47.7601 7.2395C47.5838 7.30267 47.4028 7.33426 47.2155 7.32396C46.9391 7.30817 46.6977 7.20791 46.4947 7.01906C46.3274 6.86318 46.2163 6.67091 46.147 6.45528C46.0846 6.26163 46.0592 6.0618 46.0654 5.85854C46.0791 5.4115 46.2204 5.00497 46.4646 4.63346C46.5469 4.5078 46.6415 4.39106 46.7478 4.2853C46.9666 4.06762 47.2162 3.90007 47.5118 3.80461C47.6798 3.75105 47.852 3.72633 48.0282 3.74006C48.2971 3.76066 48.5316 3.86298 48.7285 4.04839C48.9061 4.21595 49.0179 4.42333 49.0858 4.65544C49.1228 4.78385 49.1448 4.91501 49.1496 5.04892V5.08669C49.1482 5.13201 49.1482 5.17802 49.1496 5.22403Z" fill="white"/>
  </g>
  <defs>
    <clipPath id="clip0_19_56">
      <rect width="65.2355" height="92.509" fill="white" transform="translate(0.246948 0.5448)"/>
    </clipPath>
  </defs>
</svg>
