<svg width="82" height="77" viewBox="0 0 82 77" fill="none" xmlns="http://www.w3.org/2000/svg">
  <path fill-rule="evenodd" clip-rule="evenodd" d="M15.0371 76.6651C14.8199 76.6504 14.6028 76.639 14.3872 76.6195C13.173 76.5071 12.0608 76.1147 11.0737 75.408C9.36921 74.1868 8.28005 72.5618 7.8457 70.5183C7.68282 69.7497 7.6384 68.9746 7.68776 68.1931C7.7437 67.2747 7.92796 66.384 8.22411 65.5145C8.69465 64.124 9.4054 62.8637 10.3037 61.7011C10.9816 60.825 11.7466 60.0321 12.5923 59.3124C13.382 58.6382 14.101 57.8941 14.7722 57.106C15.6179 56.1128 16.3829 55.0593 17.1397 53.9992C17.8077 53.0613 18.4642 52.1186 19.1733 51.2116C19.7063 50.5277 20.269 49.8699 20.8959 49.2674C21.6806 48.5151 22.546 47.8801 23.5661 47.4665C24.3311 47.1571 25.1274 46.9927 25.9534 46.9748C26.8895 46.9536 27.8125 47.0448 28.7223 47.2646C30.1142 47.6033 31.3202 48.2725 32.36 49.2479C33.0707 49.9187 33.6713 50.6759 34.2306 51.4689C34.8229 52.3107 35.3675 53.1818 35.9302 54.0448C36.5636 55.0153 37.2168 55.9711 37.9489 56.8748C38.6761 57.7752 39.479 58.6057 40.3559 59.3661C41.4171 60.2861 42.3582 61.3086 43.1594 62.4582C43.8439 63.4433 44.4 64.492 44.7899 65.6236C45.0926 66.5061 45.2835 67.4082 45.3312 68.3396C45.4052 69.7546 45.1584 71.1093 44.5102 72.3827C43.9097 73.5632 43.0393 74.5108 41.9469 75.2631C41.144 75.8167 40.2769 76.2368 39.3243 76.4697C38.9871 76.5527 38.6432 76.613 38.2977 76.6472C38.25 76.652 38.2023 76.6602 38.1562 76.6683C38.1101 76.6944 38.0608 76.6748 38.0131 76.6813C37.9736 76.6862 37.9325 76.6683 37.8946 76.6944H37.0062C36.9716 76.6683 36.9305 76.6862 36.8927 76.6813H36.7051C35.9466 76.6569 35.2112 76.5006 34.4774 76.3329C33.2336 76.0463 32.0161 75.6685 30.7789 75.3575C29.7769 75.1068 28.7668 74.9016 27.7401 74.786C27.0277 74.7046 26.3137 74.6965 25.6013 74.7209C25.032 74.7404 24.4661 74.8267 23.9067 74.9293C22.8011 75.1361 21.7168 75.4292 20.6326 75.7223C19.4859 76.0333 18.3375 76.3443 17.1644 76.5348C16.6873 76.6113 16.2085 76.6765 15.7232 76.6716C15.6228 76.6716 15.5241 76.6846 15.4237 76.683C15.2954 76.6765 15.1687 76.6976 15.042 76.6699L15.0371 76.6651Z" fill="white"/>
  <path fill-rule="evenodd" clip-rule="evenodd" d="M36.9519 27.9824C38.5511 28.1729 39.7719 28.9773 40.7047 30.2441C41.3447 31.1136 41.7462 32.0889 41.9963 33.1311C42.2085 34.0282 42.2891 34.9401 42.2595 35.8633C42.2036 37.5584 41.8021 39.1671 41.0585 40.6945C40.5435 41.7529 39.8788 42.707 39.0315 43.5293C38.2763 44.2604 37.4224 44.845 36.4271 45.2097C35.7278 45.4654 35.0072 45.5924 34.2619 45.5484C32.9704 45.4751 31.8747 44.9671 30.9533 44.0797C30.1685 43.3225 29.6338 42.4074 29.262 41.3946C29.0037 40.6863 28.8408 39.9552 28.7569 39.2095C28.6977 38.6982 28.6746 38.1853 28.6911 37.6724C28.7289 36.4625 28.9494 35.2853 29.3459 34.1406C29.7671 32.9226 30.366 31.8007 31.182 30.7977C31.8681 29.9526 32.671 29.2394 33.6334 28.7119C34.3409 28.3243 35.0944 28.0736 35.9006 27.9824C35.9253 27.9694 35.9516 27.9742 35.9763 27.9726H36.052C36.0881 27.9677 36.1276 27.9856 36.1605 27.9596H36.6837C36.7183 27.9856 36.7561 27.9677 36.7923 27.9726H36.8696C36.8943 27.9726 36.9223 27.9661 36.947 27.9808L36.9519 27.9824Z" fill="white"/>
  <path fill-rule="evenodd" clip-rule="evenodd" d="M0.178808 46.6654C0.203487 46.1818 0.29233 45.708 0.419015 45.2423C0.667448 44.3353 1.07383 43.5098 1.7056 42.8031C2.41306 42.0134 3.28834 41.5037 4.33472 41.2969C5.18532 41.1308 6.0244 41.2025 6.85031 41.4532C7.79962 41.7431 8.63706 42.2364 9.384 42.878C10.5423 43.8712 11.3731 45.0941 11.9473 46.4928C12.2484 47.2255 12.4557 47.9843 12.5709 48.7659C12.6268 49.1453 12.6531 49.5279 12.6614 49.9106C12.6745 50.6384 12.6005 51.3565 12.4179 52.0616C12.1744 53.0027 11.7647 53.8576 11.1115 54.5903C10.3613 55.4305 9.42678 55.9548 8.30636 56.1339C7.48374 56.2658 6.67592 56.1762 5.88455 55.9239C4.82171 55.5819 3.9086 54.9957 3.10571 54.2353C2.32257 53.4961 1.70067 52.638 1.21532 51.6838C0.739839 50.7475 0.412434 49.7608 0.254489 48.7219C0.22652 48.5379 0.205132 48.3539 0.178808 48.1716C0.159065 48.0885 0.167291 48.0022 0.145903 47.9192C0.136031 47.885 0.140967 47.8508 0.139322 47.815C0.132741 47.771 0.152484 47.7238 0.12616 47.6798L0.12616 47.0073C0.168936 46.9455 0.147548 46.8771 0.152484 46.8119C0.155774 46.7631 0.144257 46.711 0.173872 46.6654H0.178808Z" fill="white"/>
  <path fill-rule="evenodd" clip-rule="evenodd" d="M11.4044 35.8698C11.4093 34.533 11.6018 33.328 12.0526 32.1687C12.3932 31.2927 12.8604 30.4899 13.5119 29.7995C14.2128 29.0538 15.047 28.5197 16.0522 28.2689C17.0575 28.0166 18.0446 28.0882 19.017 28.4367C19.8725 28.7444 20.6194 29.228 21.2808 29.8386C22.3387 30.8123 23.0972 31.9896 23.6368 33.3069C23.979 34.1454 24.216 35.0117 24.3509 35.9056C24.4266 36.412 24.471 36.9233 24.4825 37.4379C24.494 38.0843 24.4529 38.7291 24.3443 39.369C24.1205 40.7042 23.6632 41.9466 22.8471 43.0473C22.3387 43.7296 21.7234 44.293 20.9666 44.7C20.1209 45.1527 19.216 45.3432 18.2585 45.2699C17.3931 45.2048 16.5951 44.9247 15.8498 44.4884C14.8791 43.9185 14.0927 43.1515 13.4379 42.2478C12.6613 41.1748 12.1283 39.9894 11.791 38.7144C11.6067 38.0175 11.4883 37.3076 11.434 36.5895C11.4126 36.3192 11.3945 36.0489 11.4027 35.8731L11.4044 35.8698Z" fill="white"/>
  <path fill-rule="evenodd" clip-rule="evenodd" d="M53.819 47.4486V47.6033C53.7598 48.8913 53.411 50.1044 52.8483 51.2605C52.4058 52.1674 51.8414 52.993 51.1422 53.7241C50.2455 54.6652 49.2041 55.3996 47.9669 55.8392C47.2249 56.103 46.4615 56.2333 45.6717 56.1893C44.5069 56.1242 43.4901 55.7057 42.6346 54.9192C41.9288 54.2695 41.4632 53.4701 41.1687 52.5696C40.9038 51.7636 40.7968 50.9315 40.8248 50.0848C40.8824 48.2237 41.478 46.5319 42.5079 44.9834C42.8551 44.4591 43.2549 43.9755 43.7024 43.5326C44.6221 42.6256 45.675 41.9271 46.9221 41.5314C47.6312 41.3083 48.3551 41.2058 49.0972 41.2627C50.2307 41.349 51.2195 41.774 52.0487 42.5475C52.7973 43.246 53.2679 44.109 53.5542 45.0762C53.7121 45.6119 53.8042 46.159 53.8223 46.7159V46.8722C53.8157 47.0627 53.8174 47.2532 53.8223 47.4437L53.819 47.4486Z" fill="white"/>
  <path fill-rule="evenodd" clip-rule="evenodd" d="M59.5083 27.7544C59.3849 27.7463 59.2616 27.7397 59.1382 27.7283C58.4471 27.6648 57.8137 27.4418 57.251 27.038C56.2803 26.3427 55.6601 25.4178 55.4133 24.2536C55.3212 23.8156 55.2948 23.3743 55.3228 22.9298C55.3541 22.4071 55.4594 21.9007 55.6272 21.4041C55.8954 20.6127 56.3001 19.8946 56.8101 19.2335C57.1951 18.7353 57.6328 18.2826 58.1132 17.8739C58.564 17.4896 58.972 17.0663 59.3553 16.6169C59.8374 16.0519 60.2734 15.451 60.7028 14.8486C61.0828 14.3145 61.4563 13.7771 61.8611 13.261C62.1654 12.8718 62.4846 12.4973 62.8416 12.1537C63.2875 11.7255 63.7811 11.364 64.3618 11.1279C64.7978 10.9521 65.2503 10.8576 65.7208 10.8478C66.2539 10.8364 66.7787 10.8885 67.297 11.0139C68.09 11.2061 68.7761 11.5887 69.3683 12.144C69.7731 12.525 70.1153 12.9565 70.4328 13.4091C70.7701 13.8879 71.0811 14.3845 71.4002 14.8746C71.7605 15.4266 72.1324 15.9704 72.5486 16.485C72.9632 16.9979 73.4206 17.4701 73.9191 17.9032C74.5229 18.4259 75.0593 19.0088 75.515 19.6634C75.9049 20.2252 76.2208 20.8211 76.4429 21.4659C76.6157 21.9674 76.7243 22.482 76.7506 23.0128C76.7934 23.8188 76.6519 24.589 76.2833 25.3152C75.9411 25.9877 75.4459 26.5267 74.824 26.9549C74.3666 27.2692 73.8731 27.5085 73.3301 27.642C73.1376 27.6893 72.9418 27.7235 72.7461 27.743C72.7181 27.7463 72.6918 27.7511 72.6654 27.7544C72.6391 27.7691 72.6111 27.7577 72.5832 27.7609C72.5601 27.7642 72.5371 27.7544 72.5157 27.7674H72.009C71.9892 27.7528 71.9662 27.7625 71.9448 27.7609H71.8379C71.4068 27.7479 70.9873 27.6583 70.5694 27.5623C69.8619 27.3994 69.1676 27.1845 68.4635 27.007C67.8926 26.8637 67.3184 26.7481 66.7327 26.6814C66.3279 26.6358 65.9199 26.6309 65.5152 26.6439C65.191 26.6553 64.8686 26.7042 64.5494 26.7628C63.9193 26.88 63.3023 27.0477 62.6853 27.2138C62.0322 27.3913 61.379 27.5671 60.711 27.6762C60.4396 27.7202 60.1664 27.7577 59.89 27.7544C59.8341 27.7544 59.7765 27.7625 59.7189 27.7609C59.6465 27.7577 59.5741 27.7691 59.5018 27.7528L59.5083 27.7544Z" fill="white"/>
  <path fill-rule="evenodd" clip-rule="evenodd" d="M71.9859 0.0359952C72.8957 0.143463 73.5917 0.602641 74.1231 1.32397C74.4867 1.81898 74.7154 2.37422 74.8585 2.96855C74.9803 3.47983 75.0263 3.99926 75.0082 4.52357C74.977 5.48752 74.7466 6.40425 74.3238 7.27375C74.0309 7.87622 73.6525 8.42007 73.1705 8.88739C72.7411 9.30424 72.2541 9.63641 71.6881 9.84483C71.2899 9.98975 70.8803 10.063 70.4558 10.037C69.7204 9.99463 69.0968 9.70642 68.572 9.20165C68.1245 8.77016 67.8201 8.2491 67.6095 7.67269C67.4614 7.26887 67.3693 6.85366 67.3216 6.42867C67.2887 6.13721 67.2755 5.84574 67.2838 5.55428C67.3051 4.86551 67.4302 4.19465 67.6572 3.54334C67.8974 2.84968 68.238 2.21139 68.702 1.63986C69.0935 1.15952 69.5493 0.752444 70.0971 0.452838C70.5002 0.23139 70.9296 0.0897289 71.3887 0.0376235C71.4018 0.029482 71.4183 0.0327386 71.4314 0.0327386L71.4742 0.0327386C71.4956 0.029482 71.517 0.0408801 71.5367 0.0245972L71.8345 0.0245972C71.8543 0.0392518 71.8757 0.029482 71.8971 0.0327386H71.9415C71.9546 0.0327386 71.9711 0.029482 71.9859 0.0376235V0.0359952Z" fill="white"/>
  <path fill-rule="evenodd" clip-rule="evenodd" d="M51.0484 10.6736C51.0632 10.3984 51.1126 10.1281 51.185 9.86272C51.3265 9.34655 51.5568 8.87598 51.9171 8.47379C52.3202 8.02438 52.8171 7.73292 53.4143 7.61568C53.898 7.52124 54.3768 7.56194 54.8457 7.70523C55.3853 7.86969 55.8624 8.15139 56.2885 8.51612C56.9483 9.08114 57.4205 9.77805 57.7479 10.5743C57.919 10.9911 58.0375 11.4226 58.1033 11.8688C58.1345 12.0853 58.151 12.3019 58.1543 12.5201C58.1625 12.9353 58.1197 13.3424 58.0161 13.7446C57.8779 14.2803 57.6442 14.7671 57.2724 15.184C56.8463 15.6627 56.3132 15.9607 55.6749 16.0633C55.2076 16.1382 54.7469 16.0877 54.2961 15.9444C53.6907 15.749 53.1708 15.4152 52.7151 14.9837C52.2692 14.5636 51.9155 14.0735 51.6391 13.5313C51.3676 12.9988 51.1817 12.4354 51.0912 11.8444C51.0764 11.7401 51.0632 11.6359 51.0484 11.5317C51.0369 11.4845 51.0418 11.4357 51.0303 11.3884C51.0254 11.3689 51.0287 11.3494 51.027 11.3298C51.0237 11.3054 51.0353 11.2777 51.0188 11.2533V10.8706C51.0435 10.8364 51.0303 10.7974 51.0336 10.7599C51.0353 10.7322 51.0287 10.7029 51.0468 10.6769L51.0484 10.6736Z" fill="white"/>
  <path fill-rule="evenodd" clip-rule="evenodd" d="M57.4403 4.52683C57.4436 3.76641 57.5521 3.07927 57.8104 2.41982C58.0046 1.91993 58.2711 1.46401 58.6413 1.07159C59.0411 0.646605 59.5149 0.343743 60.0875 0.200453C60.66 0.0571634 61.2227 0.0978707 61.7755 0.294894C62.2625 0.469121 62.687 0.745931 63.0654 1.09276C63.6675 1.64801 64.0986 2.31723 64.4063 3.06788C64.6021 3.54497 64.7353 4.03834 64.8126 4.54799C64.8554 4.8362 64.8817 5.12767 64.8867 5.41913C64.8933 5.78712 64.8702 6.15512 64.8077 6.51823C64.6794 7.27864 64.4194 7.98695 63.9555 8.61221C63.6659 8.99975 63.3155 9.32215 62.8844 9.55336C62.4024 9.81226 61.8874 9.91973 61.3428 9.87739C60.8492 9.83994 60.3951 9.68037 59.9723 9.43124C59.4195 9.10721 58.972 8.67083 58.5985 8.15629C58.1559 7.54568 57.8532 6.86994 57.6607 6.14372C57.5554 5.74642 57.488 5.3426 57.4584 4.9339C57.4468 4.78084 57.4353 4.62615 57.4403 4.52683Z" fill="white"/>
  <path fill-rule="evenodd" clip-rule="evenodd" d="M81.5893 11.1198V11.2077C81.5547 11.9405 81.3573 12.6309 81.0365 13.2903C80.7848 13.8065 80.4623 14.2771 80.0641 14.6939C79.5541 15.2296 78.9602 15.6481 78.256 15.8989C77.8332 16.0487 77.3988 16.1236 76.9497 16.0991C76.2866 16.0617 75.7075 15.824 75.2205 15.3762C74.8191 15.0066 74.5525 14.5506 74.3864 14.0394C74.2366 13.5802 74.1758 13.1063 74.1906 12.6244C74.2235 11.5643 74.5624 10.6004 75.1481 9.71949C75.3455 9.42151 75.5726 9.1447 75.8276 8.89395C76.3524 8.37778 76.9513 7.98047 77.6604 7.75414C78.0635 7.62713 78.4765 7.56852 78.8993 7.60108C79.5442 7.64993 80.1069 7.89255 80.5791 8.33219C81.0052 8.72949 81.2734 9.22123 81.4363 9.7716C81.5251 10.0761 81.5778 10.3871 81.5893 10.7046V10.7942C81.586 10.9016 81.586 11.0107 81.5893 11.1198Z" fill="white"/>
</svg>
