<?xml version="1.0" encoding="utf-8"?>
<!-- Generator: Adobe Illustrator 28.2.0, SVG Export Plug-In . SVG Version: 6.00 Build 0)  -->
<svg version="1.1" xmlns="http://www.w3.org/2000/svg" xmlns:xlink="http://www.w3.org/1999/xlink" x="0px" y="0px" viewBox="0 0 115 84" style="enable-background:new 0 0 115 84;" xml:space="preserve">
<style type="text/css">
	.st0{fill:url(#SVGID_1_);}
	.st1{fill:#FFFFFF;}
</style>
<linearGradient id="SVGID_1_" gradientUnits="userSpaceOnUse" x1="46.6811" y1="27.7145" x2="98.6811" y2="81.7145" gradientTransform="matrix(1 0 0 -1 0 94)">
	<stop  offset="0" style="stop-color:#FF38EB"/>
	<stop  offset="1" style="stop-color:#FFCA42"/>
</linearGradient>
<path class="st0" d="M114.5,65.9c-0.3-0.5-0.9-0.8-1.4-0.8l-16.9-2.4c0-0.3,0-0.7,0-1.1v-0.3c0-0.4,0-0.8,0-1.2l15.2-2.3
	c0.6-0.1,1.1-0.4,1.4-0.9c0.3-0.5,0.5-1,0.4-1.6c-0.2-1.2-1.3-2-2.4-1.8l-14.9,2.3C94.3,40,88,6,79.6,0
	c-0.5-0.3-14.2,12.9-16.5,18.7c-1.7-0.4-3.6-0.6-5.6-0.6s-3.9,0.2-5.6,0.6C49.6,12.9,35.8-0.3,35.4,0C27,6,20.7,40,19.1,55.8
	L4.2,53.6c-1.2-0.2-2.3,0.6-2.4,1.8c-0.1,0.6,0,1.1,0.4,1.6c0.3,0.5,0.8,0.8,1.4,0.9l15.2,2.3c0,0.4,0,0.9,0,1.2v0.3
	c0,0.4,0,0.8,0,1.1L1.8,65.1c-0.6,0.1-1.1,0.4-1.4,0.8s-0.5,1-0.4,1.6c0.1,0.6,0.4,1.1,0.8,1.4c0.4,0.3,0.8,0.4,1.3,0.4
	c0.1,0,0.2,0,0.3,0l17.9-2.6c0.4,0.6,0.9,1.2,1.5,1.8L6.2,75.9c-0.5,0.2-0.9,0.7-1.1,1.2c-0.2,0.5-0.2,1.1,0.1,1.6
	c0.3,0.8,1.1,1.2,2,1.2c0.1,0,0.2,0,0.3,0c0.2,0,0.4-0.1,0.6-0.2l17.2-7.9c7.4,6.2,20,12.3,32.3,12.2c12.3,0.1,25-6,32.3-12.2
	l17.2,7.9c0.2,0.1,0.4,0.1,0.6,0.2c0.1,0,0.2,0,0.3,0c0.8,0,1.6-0.5,2-1.2c0.2-0.5,0.3-1.1,0.1-1.6s-0.6-1-1.1-1.2l-15.7-7.2
	c0.6-0.6,1.1-1.2,1.5-1.8l17.9,2.6c0.1,0,0.2,0,0.3,0c0.5,0,0.9-0.1,1.3-0.4c0.5-0.3,0.8-0.8,0.8-1.4
	C115.1,66.9,114.9,66.4,114.5,65.9L114.5,65.9z"/>
<path class="st1" d="M39.9,44L46,57l6.1-13H58l-9.2,18h-5.7L34,44H39.9z"/>
<path class="st1" d="M79,56.5c0,3.9-3.5,6.5-10.3,6.5c-4.8,0-8.8-1.3-11.7-3.7l2.8-3.4c2.2,1.9,5.3,2.9,9,2.9c3.2,0,4.8-0.6,4.8-1.8
	c0-1.2-1.5-1.6-5.3-1.9c-5.5-0.5-10.5-1.7-10.5-5.9C57.7,45,62,43,67.9,43c4,0,7.7,1,10.2,2.8l-2.7,3.4c-2.1-1.5-4.6-2.1-7.5-2.1
	c-2.2,0-4.8,0.3-4.8,1.7c0,1.3,2.2,1.4,5.5,1.7C74.7,51,79,52.2,79,56.5L79,56.5z"/>
</svg>
